<?xml version="1.0" encoding="UTF-8"?>
<svg width="130px" height="48px" viewBox="0 0 130 48" version="1.1" xmlns="http://www.w3.org/2000/svg" xmlns:xlink="http://www.w3.org/1999/xlink">
    <title>97750898-6299-499C-8603-085341B60C10</title>
    <defs>
        <polygon id="path-1" points="0 47.9035983 129.308165 47.9035983 129.308165 0 0 0"></polygon>
    </defs>
    <g id="Unassisted-checkout-for-mobile-and-desktop" stroke="none" stroke-width="1" fill="none" fill-rule="evenodd">
        <g id="E.-02-Unassisted-checkout,-Switching-to-Tesco-Mobile,-Desktop" transform="translate(-24.000000, -13.000000)">
            <g id="logo" transform="translate(24.000000, 13.000000)">
                <path d="M56.8006445,33.7015632 L58.8648448,33.7015632 L58.8648448,36.0862996 C59.5529116,34.537446 60.9533393,33.5049439 62.7225965,33.5049439 C64.6633182,33.5049439 65.9167763,34.4639397 66.3588898,36.0619983 C67.1208429,34.4639397 68.6441468,33.5049439 70.3885075,33.5049439 C72.79644,33.5049439 74.1972693,34.9063833 74.1972693,37.5863498 L74.1972693,46.3884251 L72.133069,46.3884251 L72.133069,38.0042912 C72.133069,36.3817305 71.4450022,35.4225339 69.9218991,35.4225339 C68.0054715,35.4225339 66.5311574,37.2176134 66.5311574,40.6103498 L66.5311574,46.3884251 L64.4669571,46.3884251 L64.4669571,38.0042912 C64.4669571,36.3817305 63.7299005,35.4225339 62.2310915,35.4225339 C60.4128445,35.4225339 58.8648448,37.2666176 58.8648448,40.6103498 L58.8648448,46.3884251 L56.8006445,46.3884251 L56.8006445,33.7015632 Z" id="Fill-1" fill="#00539F"></path>
                <path d="M82.3159351,44.7413222 C84.9055719,44.7413222 86.4595949,42.6937908 86.4595949,40.1013891 C86.4595949,37.5089874 84.9055719,35.4616569 82.3159351,35.4616569 C79.7264992,35.4616569 78.1724762,37.5089874 78.1724762,40.1013891 C78.1724762,42.6937908 79.7264992,44.7413222 82.3159351,44.7413222 M82.3159351,33.536636 C86.2620292,33.536636 88.5806154,36.5475816 88.5806154,40.1013891 C88.5806154,43.6553975 86.2620292,46.6661423 82.3159351,46.6661423 C78.3945368,46.6661423 76.0514556,43.6553975 76.0514556,40.1013891 C76.0514556,36.5475816 78.3945368,33.536636 82.3159351,33.536636" id="Fill-3" fill="#00539F"></path>
                <path d="M100.103234,40.0696971 C100.103234,37.3055799 98.5002212,35.4299649 96.3051135,35.4299649 C94.1100059,35.4299649 92.5067922,37.3055799 92.5067922,40.0696971 C92.5067922,42.8338142 94.1100059,44.7096301 96.3051135,44.7096301 C98.5002212,44.7096301 100.103234,42.8338142 100.103234,40.0696971 M92.6547657,44.6106176 L92.6547657,46.4370276 L90.5831367,46.4370276 L90.5831367,28.9638226 L92.6547657,28.9638226 L92.6547657,35.6016803 C93.3701383,34.442651 94.8498734,33.5049439 96.650452,33.5049439 C100.201816,33.5049439 102.199559,36.367672 102.199559,40.0696971 C102.199559,43.7478226 100.103234,46.634651 96.6257563,46.634651 C94.7759871,46.634651 93.3207469,45.7224502 92.6547657,44.6106176" id="Fill-5" fill="#00539F"></path>
                <mask id="mask-2" fill="white">
                    <use xlink:href="#path-1"></use>
                </mask>
                <g id="Clip-8"></g>
                <path d="M104.48335,46.4370879 L106.554979,46.4370879 L106.554979,33.7024268 L104.48335,33.7024268 L104.48335,46.4370879 Z M105.519165,28.8889707 C106.38231,28.8889707 107.023596,29.5561506 107.023596,30.420954 C107.023596,31.2582427 106.38231,31.9254226 105.519165,31.9254226 C104.655819,31.9254226 104.014734,31.2582427 104.014734,30.420954 C104.014734,29.5561506 104.655819,28.8889707 105.519165,28.8889707 L105.519165,28.8889707 Z" id="Fill-7" fill="#00539F" mask="url(#mask-2)"></path>
                <polygon id="Fill-9" fill="#00539F" mask="url(#mask-2)" points="109.417072 46.4370879 111.488701 46.4370879 111.488701 28.9638828 109.417072 28.9638828"></polygon>
                <path d="M123.479976,38.7370042 C123.282611,36.8376904 121.77798,35.3569205 119.681655,35.3569205 C117.733304,35.3569205 116.302759,36.7627782 115.883534,38.7370042 L123.479976,38.7370042 Z M125.600796,40.5140084 L115.760257,40.5140084 C115.90823,43.0807029 117.437357,44.7586946 119.755742,44.7586946 C121.432842,44.7586946 122.690516,44.0678159 123.627749,42.5121339 L125.35424,43.4518494 C124.047175,45.6236987 122.246596,46.6345105 119.706351,46.6345105 C115.834143,46.6345105 113.639035,43.5978577 113.639035,40.0697573 C113.639035,36.5414561 116.006812,33.5050042 119.681655,33.5050042 C123.307307,33.5050042 125.600796,36.2928201 125.600796,39.6255063 L125.600796,40.5140084 Z" id="Fill-10" fill="#00539F" mask="url(#mask-2)"></path>
                <path d="M58.9880222,18.9963515 L68.3191874,18.9963515 C68.3294271,18.9963515 68.3382613,18.9987615 68.344887,19.0021757 L68.3470955,19.0033808 C68.3493041,19.0049874 68.3511111,19.0063933 68.3529181,19.008 C68.3713897,19.0260753 68.3731967,19.0622259 68.3452885,19.0877322 C68.3370566,19.095364 68.3300294,19.0995816 68.3219983,19.1035983 L68.3051329,19.1110293 C67.2213324,19.6054895 65.7695055,21.1133724 65.7695055,21.1133724 C64.6838979,22.1448703 63.8703448,22.7957824 62.1344168,22.7957824 L53.2379364,22.7957824 C53.2122368,22.7957824 53.1987846,22.7714812 53.1971784,22.7463766 C53.1971784,22.7299079 53.2046072,22.712636 53.2158508,22.7031967 C53.2232796,22.6969707 53.2343224,22.6899414 53.2443613,22.6835146 C54.2205447,22.1380418 55.6787965,20.6247364 55.6787965,20.6247364 C56.2761116,19.9193975 57.4689346,18.9963515 58.9880222,18.9963515" id="Fill-11" fill="#00539F" mask="url(#mask-2)"></path>
                <path d="M106.758327,1.25729874 C108.36395,1.25729874 109.75454,1.45291381 110.871067,1.74693891 L110.871067,5.15674644 C109.774216,4.04009372 108.481606,3.33455397 106.777401,3.33455397 C103.663533,3.33455397 101.587687,5.50961674 101.587687,8.41010209 C101.587687,11.3105874 103.663533,13.4862527 106.777401,13.4862527 C108.481606,13.4862527 109.774216,12.7805121 110.871067,11.6634577 L110.871067,15.0732653 C109.75454,15.3672904 108.36395,15.5833908 106.758327,15.5833908 C101.372453,15.5833908 97.4749475,12.8982025 97.4749475,8.41010209 C97.4749475,3.92260418 101.372453,1.25729874 106.758327,1.25729874 L106.758327,1.25729874 Z M91.4622438,6.82308954 C94.1452424,7.19503933 96.3780964,8.13595983 96.3780964,11.056328 C96.3780964,14.4858176 93.1268956,15.5833908 89.6211081,15.5637088 C87.1726184,15.5438259 85.0967729,15.3084452 83.5694534,14.7013155 L83.5694534,11.6242946 C85.7430778,13.0355749 87.9761326,13.4862527 89.6211081,13.4862527 C91.3251124,13.4862527 92.8919851,13.0745372 92.8919851,11.7809473 C92.8919851,10.4879598 91.4425676,10.1742527 88.465429,9.7235749 C85.9002871,9.33174226 83.5694534,8.23376736 83.549686,5.70583431 C83.5299001,2.29602678 86.762027,1.25729874 89.8558178,1.25729874 C91.853962,1.25729874 93.7924752,1.49247866 95.5753853,2.08052887 L95.5753853,5.39252887 C94.0864144,4.0792569 91.8736383,3.33455397 89.6994116,3.33455397 C88.2303177,3.33455397 86.8397282,3.80491381 86.8397282,4.90228619 C86.8397282,6.27400167 88.8964997,6.47042008 91.4622438,6.82308954 L91.4622438,6.82308954 Z M76.6948091,13.1922276 C78.2813582,13.1922276 80.925205,12.8196753 81.9638305,11.8986377 L81.9638305,15.2696837 L70.7021833,15.2696837 C71.2501069,14.6225874 71.3484882,14.1917925 71.3484882,12.8785205 L71.3484882,3.94248703 C71.3484882,2.62901423 71.2501069,2.19821925 70.7021833,1.55132385 L81.3761528,1.55132385 L81.3761528,4.92216904 C80.3375273,4.00133222 77.6936805,3.62857908 76.1077338,3.62857908 L74.8538741,3.62857908 L74.8538741,7.27356653 L75.774442,7.27356653 C76.6757352,7.27356653 78.066124,7.23480502 78.9866919,6.90121506 L78.9866919,9.60588452 C78.066124,9.27289707 76.6757352,9.23313138 75.774442,9.23313138 L74.8538741,9.23313138 L74.8538741,13.1922276 L76.6948091,13.1922276 Z M53.8195506,1.55132385 L69.2718396,1.55132385 L69.2718396,4.92216904 C68.1757916,4.00133222 65.8451587,3.62857908 63.3579188,3.62857908 L63.3579188,12.8196753 C63.3579188,14.1917925 63.475374,14.5637423 64.0036214,15.2696837 L59.0877688,15.2696837 C59.6168193,14.5637423 59.7342745,14.1917925 59.7342745,12.8196753 L59.7342745,3.62857908 C57.2470346,3.62857908 54.9164017,4.00133222 53.8195506,4.92216904 L53.8195506,1.55132385 Z" id="Fill-12" fill="#EE1C2E" mask="url(#mask-2)"></path>
                <path d="M120.573391,13.4861724 C117.772536,13.4861724 115.951277,11.1737372 115.951277,8.41062427 C115.951277,5.62762845 117.772536,3.33447364 120.573391,3.33447364 C123.373644,3.33447364 125.195505,5.62762845 125.195505,8.41062427 C125.195505,11.1737372 123.373644,13.4861724 120.573391,13.4861724 M120.573391,1.25721841 C115.011234,1.25721841 111.838537,4.49069121 111.838537,8.41062427 C111.838537,12.310072 115.011234,15.5634276 120.573391,15.5634276 C126.135549,15.5634276 129.308245,12.310072 129.308245,8.41062427 C129.308245,4.49069121 126.135549,1.25721841 120.573391,1.25721841" id="Fill-13" fill="#EE1C2E" mask="url(#mask-2)"></path>
                <path d="M119.807724,18.9963515 L129.138889,18.9963515 C129.149128,18.9963515 129.157762,18.9987615 129.164588,19.0021757 L129.165994,19.0033808 C129.168403,19.0049874 129.170812,19.0063933 129.172419,19.008 C129.191091,19.0260753 129.192697,19.0622259 129.164588,19.0877322 C129.156758,19.095364 129.149731,19.0995816 129.141499,19.1035983 L129.124834,19.1110293 C128.040833,19.6054895 126.589207,21.1133724 126.589207,21.1133724 C125.503599,22.1448703 124.689444,22.7957824 122.954118,22.7957824 L114.057437,22.7957824 C114.031737,22.7957824 114.017884,22.7714812 114.01688,22.7463766 C114.01688,22.7299079 114.023706,22.712636 114.035552,22.7031967 C114.042981,22.6969707 114.053421,22.6899414 114.064063,22.6835146 C115.040246,22.1380418 116.498096,20.6247364 116.498096,20.6247364 C117.09501,19.9193975 118.288636,18.9963515 119.807724,18.9963515" id="Fill-14" fill="#00539F" mask="url(#mask-2)"></path>
                <path d="M104.602713,18.9963515 L113.934079,18.9963515 C113.944319,18.9963515 113.952952,18.9987615 113.959778,19.0021757 L113.961786,19.0033808 C113.963593,19.0049874 113.966003,19.0063933 113.96781,19.008 C113.986281,19.0260753 113.987887,19.0622259 113.959778,19.0877322 C113.951948,19.095364 113.944921,19.0995816 113.936689,19.1035983 L113.920024,19.1110293 C112.836023,19.6054895 111.384196,21.1133724 111.384196,21.1133724 C110.298789,22.1448703 109.484634,22.7957824 107.749308,22.7957824 L98.8520247,22.7957824 C98.8269274,22.7957824 98.8130737,22.7714812 98.8120699,22.7463766 C98.8120699,22.7299079 98.8188963,22.712636 98.8305414,22.7031967 C98.8375687,22.6969707 98.8486115,22.6899414 98.8590519,22.6835146 C99.8354362,22.1380418 101.293487,20.6247364 101.293487,20.6247364 C101.8902,19.9193975 103.083625,18.9963515 104.602713,18.9963515" id="Fill-15" fill="#00539F" mask="url(#mask-2)"></path>
                <path d="M89.3976821,18.9963515 L98.7290481,18.9963515 C98.7392878,18.9963515 98.7479212,18.9987615 98.7547477,19.0021757 L98.7567555,19.0033808 C98.7591648,19.0049874 98.7609718,19.0063933 98.7627788,19.008 C98.7812504,19.0260753 98.7828566,19.0622259 98.7549485,19.0877322 C98.7469173,19.095364 98.7398901,19.0995816 98.7316582,19.1035983 L98.7153952,19.1110293 C97.6309923,19.6054895 96.1791654,21.1133724 96.1791654,21.1133724 C95.094361,22.1448703 94.2802055,22.7957824 92.5442775,22.7957824 L83.6475963,22.7957824 C83.6218967,22.7957824 83.608043,22.7714812 83.6070391,22.7463766 C83.6070391,22.7299079 83.6144679,22.712636 83.6263138,22.7031967 C83.6331403,22.6969707 83.6441831,22.6899414 83.654222,22.6835146 C84.6304054,22.1380418 86.0890588,20.6247364 86.0890588,20.6247364 C86.6857715,19.9193975 87.8787953,18.9963515 89.3976821,18.9963515" id="Fill-16" fill="#00539F" mask="url(#mask-2)"></path>
                <path d="M74.1928522,18.9963515 L83.5240173,18.9963515 C83.5344578,18.9963515 83.5430913,18.9987615 83.549717,19.0021757 L83.5519255,19.0033808 C83.5541341,19.0049874 83.5559411,19.0063933 83.5579489,19.008 C83.5764204,19.0260753 83.5780267,19.0622259 83.549717,19.0877322 C83.5418866,19.095364 83.5348594,19.0995816 83.5268282,19.1035983 L83.5105652,19.1110293 C82.4261623,19.6054895 80.9743354,21.1133724 80.9743354,21.1133724 C79.8887279,22.1448703 79.0753756,22.7957824 77.3392468,22.7957824 L68.4427663,22.7957824 C68.4170667,22.7957824 68.403213,22.7714812 68.4020084,22.7463766 C68.4020084,22.7299079 68.4096379,22.712636 68.4212831,22.7031967 C68.4281095,22.6969707 68.4389516,22.6899414 68.4491912,22.6835146 C69.4255755,22.1380418 70.8842288,20.6247364 70.8842288,20.6247364 C71.4811423,19.9193975 72.6737646,18.9963515 74.1928522,18.9963515" id="Fill-17" fill="#00539F" mask="url(#mask-2)"></path>
                <path d="M25.4017907,22.4943264 C19.3828629,16.4736402 16.8948199,9.20133891 19.8442512,6.25104603 C22.7938832,3.3005523 30.0642612,5.78952301 36.0829883,11.8100084 C42.1019161,17.8306946 44.5899591,25.1029958 41.6405278,28.0534895 C38.6908958,31.0037824 31.4207185,28.5150126 25.4017907,22.4943264 M26.8397639,34.6294895 C24.9996321,36.4699582 20.4642541,34.9172887 16.7095017,31.1616402 C12.95495,27.4057908 11.4025333,22.8690879 13.2426651,21.0284184 C15.0825962,19.1879498 19.6179742,20.7406192 23.3729274,24.4964686 C27.1276798,28.252318 28.679695,32.7890209 26.8397639,34.6294895 M16.8715297,39.2589791 C15.758014,40.3730209 13.0129749,39.4333054 10.7405676,37.1598326 C8.46795961,34.8869623 7.52851858,32.1411213 8.64203427,31.0270795 C9.75575075,29.9132385 12.5007898,30.852954 14.7731971,33.1260251 C17.0458051,35.3992971 17.9852461,38.1451381 16.8715297,39.2589791 M40.8763662,7.01543096 C31.5253239,-2.3383431 16.3641632,-2.3383431 7.01332181,7.01543096 C-2.3377204,16.3690042 -2.3377204,31.5345941 7.01332181,40.8883682 C16.3641632,50.2419414 31.5253239,50.2419414 40.8763662,40.8883682 C50.2272076,31.5345941 50.2272076,16.3690042 40.8763662,7.01543096" id="Fill-18" fill="#00539F" mask="url(#mask-2)"></path>
            </g>
        </g>
    </g>
</svg>