<svg xmlns="http://www.w3.org/2000/svg" xmlns:xlink="http://www.w3.org/1999/xlink" width="130" height="48" viewBox="0 0 130 48"><title>97750898-6299-499C-8603-085341B60C10</title><defs><path id="a" d="M0 47.904h129.308V0H0z"/></defs><g fill="none" fill-rule="evenodd"><path fill="#00539f" d="M56.8 33.702h2.065v2.384c.688-1.549 2.088-2.581 3.858-2.581 1.94 0 3.194.959 3.636 2.557.762-1.598 2.285-2.557 4.03-2.557 2.407 0 3.808 1.401 3.808 4.081v8.802h-2.064v-8.384c0-1.622-.688-2.581-2.211-2.581-1.917 0-3.39 1.795-3.39 5.187v5.778h-2.065v-8.384c0-1.622-.737-2.581-2.236-2.581-1.818 0-3.366 1.844-3.366 5.187v5.778H56.8zM82.316 44.741c2.59 0 4.144-2.047 4.144-4.64s-1.554-4.64-4.144-4.64-4.144 2.048-4.144 4.64c0 2.593 1.554 4.64 4.144 4.64m0-11.204c3.946 0 6.265 3.01 6.265 6.564s-2.319 6.565-6.265 6.565c-3.921 0-6.265-3.01-6.265-6.565 0-3.553 2.344-6.564 6.265-6.564M100.103 40.07c0-2.764-1.603-4.64-3.798-4.64s-3.798 1.876-3.798 4.64 1.603 4.64 3.798 4.64 3.798-1.876 3.798-4.64m-7.448 4.54v1.827h-2.072V28.964h2.072v6.638c.715-1.16 2.195-2.097 3.995-2.097 3.552 0 5.55 2.863 5.55 6.565 0 3.678-2.097 6.565-5.574 6.565-1.85 0-3.305-.913-3.971-2.024"/><mask id="b" fill="#fff"><use xlink:href="#a"/></mask><path fill="#00539f" d="M104.483 46.437h2.072V33.702h-2.072zm1.036-17.548c.863 0 1.505.667 1.505 1.532a1.48 1.48 0 0 1-1.505 1.504 1.48 1.48 0 0 1-1.504-1.504c0-.865.64-1.532 1.504-1.532" mask="url(#b)"/><path fill="#00539f" d="M109.417 46.437h2.072V28.964h-2.072z" mask="url(#b)"/><path fill="#00539f" d="M123.48 38.737c-.197-1.9-1.702-3.38-3.798-3.38-1.949 0-3.38 1.406-3.798 3.38zm2.12 1.777h-9.84c.148 2.567 1.677 4.245 3.996 4.245 1.677 0 2.935-.691 3.872-2.247l1.726.94c-1.307 2.172-3.107 3.183-5.648 3.183-3.872 0-6.067-3.037-6.067-6.565s2.368-6.565 6.043-6.565c3.625 0 5.919 2.788 5.919 6.12z" mask="url(#b)"/><path fill="#00539f" d="M58.988 18.996h9.331q.016 0 .026.006l.002.001.006.005c.018.018.02.054-.008.08a.1.1 0 0 1-.023.016l-.017.007c-1.084.494-2.535 2.002-2.535 2.002-1.086 1.032-1.9 1.683-3.636 1.683h-8.896c-.026 0-.04-.025-.04-.05 0-.016.007-.033.018-.043l.028-.02c.977-.545 2.435-2.058 2.435-2.058.597-.706 1.79-1.629 3.309-1.629" mask="url(#b)"/><path fill="#ee1c2e" d="M106.758 1.257c1.606 0 2.997.196 4.113.49v3.41c-1.097-1.117-2.39-1.822-4.094-1.822-3.113 0-5.19 2.175-5.19 5.075s2.077 5.076 5.19 5.076c1.705 0 2.997-.705 4.094-1.823v3.41c-1.116.294-2.507.51-4.113.51-5.386 0-9.283-2.685-9.283-7.173s3.897-7.153 9.283-7.153M91.462 6.823c2.683.372 4.916 1.313 4.916 4.233 0 3.43-3.251 4.527-6.757 4.508-2.448-.02-4.524-.256-6.052-.863v-3.077c2.174 1.412 4.407 1.862 6.052 1.862 1.704 0 3.271-.411 3.271-1.705 0-1.293-1.45-1.607-4.427-2.057-2.565-.392-4.896-1.49-4.915-4.018-.02-3.41 3.212-4.449 6.306-4.449 1.998 0 3.936.235 5.72.824v3.312c-1.49-1.314-3.702-2.058-5.877-2.058-1.469 0-2.86.47-2.86 1.567 0 1.372 2.057 1.568 4.623 1.921m-14.767 6.37c1.586 0 4.23-.373 5.269-1.294v3.37H70.702c.548-.646.646-1.077.646-2.39V3.942c0-1.313-.098-1.744-.646-2.39h10.674v3.37c-1.038-.92-3.682-1.293-5.268-1.293h-1.254v3.645h.92c.902 0 2.292-.04 3.213-.373v2.705c-.92-.333-2.311-.373-3.213-.373h-.92v3.96zM53.82 1.55h15.452v3.371c-1.096-.92-3.427-1.293-5.914-1.293v9.19c0 1.373.117 1.745.646 2.45h-4.916c.529-.705.646-1.077.646-2.45V3.63c-2.487 0-4.818.372-5.914 1.293z" mask="url(#b)"/><path fill="#ee1c2e" d="M120.573 13.486c-2.8 0-4.622-2.312-4.622-5.075 0-2.783 1.822-5.077 4.622-5.077s4.623 2.294 4.623 5.077c0 2.763-1.822 5.075-4.623 5.075m0-12.229c-5.562 0-8.734 3.234-8.734 7.154 0 3.9 3.172 7.152 8.734 7.152 5.563 0 8.735-3.253 8.735-7.152 0-3.92-3.172-7.154-8.735-7.154" mask="url(#b)"/><path fill="#00539f" d="M119.808 18.996h9.33q.017 0 .027.006l.001.001.006.005c.02.018.02.054-.007.08a.1.1 0 0 1-.024.016l-.016.007c-1.084.494-2.536 2.002-2.536 2.002-1.085 1.032-1.9 1.683-3.635 1.683h-8.897c-.025 0-.04-.025-.04-.05 0-.016.007-.033.019-.043l.028-.02c.976-.545 2.434-2.058 2.434-2.058.597-.706 1.79-1.629 3.31-1.629" mask="url(#b)"/><path fill="#00539f" d="M104.603 18.996h9.331q.015 0 .026.006l.002.001.006.005c.018.018.02.054-.008.08a.1.1 0 0 1-.023.016l-.017.007c-1.084.494-2.536 2.002-2.536 2.002-1.085 1.032-1.9 1.683-3.635 1.683h-8.897c-.025 0-.039-.025-.04-.05 0-.016.007-.033.019-.043l.028-.02c.976-.545 2.434-2.058 2.434-2.058.597-.706 1.79-1.629 3.31-1.629" mask="url(#b)"/><path fill="#00539f" d="M89.398 18.996h9.331q.015 0 .026.006l.002.001.006.005c.018.018.02.054-.008.08a.1.1 0 0 1-.023.016l-.017.007c-1.084.494-2.536 2.002-2.536 2.002-1.085 1.032-1.899 1.683-3.635 1.683h-8.896c-.026 0-.04-.025-.041-.05 0-.016.007-.033.02-.043q.01-.01.027-.02c.976-.545 2.435-2.058 2.435-2.058.597-.706 1.79-1.629 3.309-1.629" mask="url(#b)"/><path fill="#00539f" d="M74.193 18.996h9.331q.016 0 .026.006l.002.001.006.005c.018.018.02.054-.008.08a.1.1 0 0 1-.023.016l-.016.007c-1.085.494-2.537 2.002-2.537 2.002-1.085 1.032-1.899 1.683-3.635 1.683h-8.896c-.026 0-.04-.025-.041-.05 0-.016.008-.033.02-.043l.027-.02c.977-.545 2.435-2.058 2.435-2.058.597-.706 1.79-1.629 3.309-1.629" mask="url(#b)"/><path fill="#00539f" d="M25.402 22.494c-6.02-6.02-8.507-13.293-5.558-16.243 2.95-2.95 10.22-.461 16.239 5.559s8.507 13.293 5.558 16.243c-2.95 2.95-10.22.462-16.24-5.559M26.84 34.63c-1.84 1.841-6.376.288-10.13-3.467s-5.307-8.293-3.467-10.134c1.84-1.84 6.375-.287 10.13 3.468S28.68 32.79 26.84 34.63m-9.968 4.63c-1.114 1.114-3.859.174-6.131-2.1-2.273-2.272-3.212-5.018-2.099-6.132 1.114-1.114 3.859-.174 6.131 2.099s3.212 5.02 2.099 6.133M40.876 7.015c-9.35-9.353-24.512-9.353-33.863 0s-9.35 24.52 0 33.873c9.351 9.354 24.512 9.354 33.863 0s9.351-24.519 0-33.873" mask="url(#b)"/></g></svg>
