<svg width="0" height="0" class="hidden">
  <symbol fill="none" xmlns="http://www.w3.org/2000/svg" viewBox="0 0 24 24" id="accessibility-filled">
    <path d="M5.00293 6.54412C5.43607 6.55892 5.86679 6.62097 6.28614 6.72869L6.42969 6.76091C7.08181 6.89917 7.74525 7.00551 8.46582 7.1154C9.63541 7.29526 10.8164 7.39388 12 7.41228C13.1836 7.39389 14.3646 7.29525 15.5342 7.1154C16.262 7.00906 16.9182 6.90271 17.5703 6.76091L17.7139 6.72869C18.1332 6.62097 18.5639 6.55892 18.9971 6.54412C19.1393 6.54416 19.2813 6.55516 19.4219 6.57634C19.6716 6.61512 19.9108 6.70303 20.125 6.83513C20.3392 6.96734 20.5247 7.14151 20.6689 7.34587C20.9527 7.76192 21.0615 8.27063 20.9717 8.76384C20.9274 9.02065 20.8222 9.2635 20.666 9.4738C20.5097 9.68422 20.3057 9.85625 20.0703 9.97576C19.8329 10.0855 19.5807 10.1611 19.3213 10.1994L19.2022 10.2238C18.6798 10.3337 18.1643 10.4261 17.5986 10.5324C17.0332 10.6387 16.4678 10.7449 15.9023 10.8654L15.4766 10.9543C15.3725 10.9791 15.4333 11.0004 15.3721 11.0217C15.3878 11.3322 15.4263 11.6413 15.4873 11.9465L15.5674 12.464C15.6286 12.8894 15.9412 14.6549 16.2402 16.3635C16.5681 18.2706 16.8927 20.0717 16.9287 20.3625C17.026 21.0927 17.2062 22.4545 15.7002 22.926C15.4863 22.9744 15.2673 22.9991 15.0479 23.0002C13.863 23 13.4415 22.1529 13.2109 21.4972C13.1029 21.1711 12.3816 17.6115 11.9961 15.0343C11.6106 17.5974 10.8942 21.1711 10.7861 21.4972C10.5627 22.1778 10.1337 23.0216 8.96289 23.0217C8.75193 23.0204 8.54168 22.9963 8.33594 22.9504C6.79428 22.4684 6.97369 21.1075 7.06739 20.3771C7.10702 20.0864 7.42471 18.2853 7.75977 16.3781C8.07319 14.659 8.36871 12.8937 8.4336 12.4787L8.5127 11.964C8.57131 11.6575 8.60832 11.3469 8.62403 11.0353C8.56698 11.0141 8.63825 10.9934 8.54883 10.9758L8.09473 10.8801C7.52908 10.7595 6.91988 10.6453 6.39746 10.5461C5.87512 10.4468 5.32709 10.3483 4.79395 10.2385L4.66797 10.1994C4.4086 10.1611 4.15633 10.0855 3.91895 9.97576C3.68353 9.85625 3.47957 9.68422 3.32325 9.4738C3.16709 9.26356 3.06288 9.02057 3.01856 8.76384C2.9287 8.27066 3.03657 7.76191 3.32032 7.34587C3.46458 7.14151 3.65002 6.96734 3.86426 6.83513C4.07845 6.703 4.31767 6.61513 4.56739 6.57634C4.70797 6.55516 4.84997 6.54417 4.99219 6.54412H5.00293ZM11.5918 1.03142C12.9863 0.808755 14.3 1.74041 14.5264 3.11247C14.7526 4.48449 13.8056 5.77746 12.4111 6.00017C11.0168 6.22271 9.70307 5.29094 9.47657 3.91911C9.2502 2.54702 10.1973 1.25414 11.5918 1.03142Z" fill="currentColor"></path>
  </symbol>
  <symbol fill="none" xmlns="http://www.w3.org/2000/svg" viewBox="0 0 24 24" id="basket-filled">
    <path fill-rule="evenodd" clip-rule="evenodd" d="M13.4474 9.7499L18.6127 2.43241L17.3873 1.56738L11.6114 9.7499H1.50001H0.560425L0.768656 10.6661L3.26866 21.6661L3.40133 22.2499H4.00001H20H20.5987L20.7314 21.6661L23.2314 10.6661L23.4396 9.7499H22.5H13.4474ZM15.25 18.9999V12.9999H16.75V18.9999H15.25ZM11.25 12.9999V18.9999H12.75V12.9999H11.25ZM7.25001 18.9999V12.9999H8.75001V18.9999H7.25001Z" fill="currentColor"></path>
  </symbol>
  <symbol fill="none" xmlns="http://www.w3.org/2000/svg" viewBox="0 0 24 24" id="account-filled">
    <path fill-rule="evenodd" clip-rule="evenodd" d="M12 2.75C9.65281 2.75 7.75003 4.65279 7.75003 7C7.75003 9.34721 9.65281 11.25 12 11.25C14.3472 11.25 16.25 9.34721 16.25 7C16.25 4.65279 14.3472 2.75 12 2.75ZM12 12.75C7.70106 12.75 3.8658 15.9242 2.77222 20.3189L2.54053 21.25H3.50003H20.5H21.4595L21.2278 20.3189C20.1343 15.9242 16.299 12.75 12 12.75Z" fill="currentColor"></path>
  </symbol>
  <symbol fill="none" xmlns="http://www.w3.org/2000/svg" viewBox="0 0 24 24" id="contacts-filled">
    <path fill-rule="evenodd" clip-rule="evenodd" d="M20 0H4V2H20V0ZM4 24H20V22H4V24ZM20 4H4C2.9 4 2 4.9 2 6V18C2 19.1 2.9 20 4 20H20C21.1 20 22 19.1 22 18V6C22 4.9 21.1 4 20 4ZM12 6.75C13.24 6.75 14.25 7.76 14.25 9C14.25 10.24 13.24 11.25 12 11.25C10.76 11.25 9.75 10.24 9.75 9C9.75 7.76 10.76 6.75 12 6.75ZM17 17H7V15.5C7 13.83 10.33 13 12 13C13.67 13 17 13.83 17 15.5V17Z" fill="currentColor"></path>
  </symbol>
  <symbol fill="none" xmlns="http://www.w3.org/2000/svg" viewBox="0 0 24 24" id="clubcard-filled">
    <path fill-rule="evenodd" clip-rule="evenodd" d="M0.75 6C0.75 4.78579 1.78579 3.75 3 3.75H21C22.2142 3.75 23.25 4.78579 23.25 6V18C23.25 19.2142 22.2142 20.25 21 20.25H3C1.78579 20.25 0.75 19.2142 0.75 18V6ZM16 14.25H8V12.75H16V14.25ZM10 11.25H14.1V9.75H10V11.25Z" fill="currentColor"></path>
  </symbol>
  <symbol fill="none" xmlns="http://www.w3.org/2000/svg" viewBox="0 0 24 24" id="camera-filled">
    <path fill-rule="evenodd" clip-rule="evenodd" d="M9.5 2.75H8.95943L8.78849 3.26283L7.95943 5.75H2.5H1.75V6.5V20.5V21.25H2.5H21.5H22.25V20.5V6.5V5.75H21.5H16.0406L15.2115 3.26283L15.0406 2.75H14.5H9.5ZM9.25 13.5C9.25 11.9812 10.4812 10.75 12 10.75C13.5188 10.75 14.75 11.9812 14.75 13.5C14.75 15.0188 13.5188 16.25 12 16.25C10.4812 16.25 9.25 15.0188 9.25 13.5ZM12 9.25C9.65279 9.25 7.75 11.1528 7.75 13.5C7.75 15.8472 9.65279 17.75 12 17.75C14.3472 17.75 16.25 15.8472 16.25 13.5C16.25 11.1528 14.3472 9.25 12 9.25Z" fill="currentColor"></path>
  </symbol>
  <symbol fill="none" xmlns="http://www.w3.org/2000/svg" viewBox="0 0 24 24" id="points-filled">
    <path d="M21 3.75C22.2142 3.75 23.25 4.78579 23.25 6V18C23.25 19.2142 22.2142 20.25 21 20.25H3C1.78579 20.25 0.75 19.2142 0.75 18V6C0.75 4.78579 1.78579 3.75 3 3.75H21ZM6.75 7.5V9.75H4.5V11.25H6.75V13.5H8.25V11.25H10.5V9.75H8.25V7.5H6.75Z" fill="currentColor"></path>
  </symbol>
  <symbol fill="none" xmlns="http://www.w3.org/2000/svg" viewBox="0 0 24 24" id="coupons-filled">
    <path fill-rule="evenodd" clip-rule="evenodd" d="M2 3.75H1.25V4.5V8.4V9.03535L1.8767 9.1398C3.35596 9.38634 4.45 10.6066 4.45 12C4.45 13.4257 3.32961 14.6976 1.91718 14.8546L1.25 14.9287V15.6V19.5V20.25H2H22H22.75V19.5V15.6V14.9287L22.0828 14.8546C20.6575 14.6962 19.55 13.5127 19.55 12C19.55 10.4873 20.6575 9.30378 22.0828 9.14541L22.75 9.07128V8.4V4.5V3.75H22H2ZM14.1 11.25H10V9.75H14.1V11.25ZM16 14.25H8V12.75H16V14.25Z" fill="currentColor"></path>
  </symbol>
  <symbol fill="none" xmlns="http://www.w3.org/2000/svg" viewBox="0 0 24 24" id="datepicker-filled">
    <path d="M8.25 3.75H15.75V2H17.25V3.75H22.25V22.1982L1.75 22.252V3.75H6.75V2H8.25V3.75ZM3.25 20.748L20.75 20.7021V10.25H3.25V20.748Z" fill="currentColor"></path>
  </symbol>
  <symbol fill="none" xmlns="http://www.w3.org/2000/svg" viewBox="0 0 24 24" id="edit-filled">
    <path fill-rule="evenodd" clip-rule="evenodd" d="M21.3093 7.75048L9.95728 19.0961L2.53125 21.4702L4.90531 13.9932L16.2487 2.68982L21.3093 7.75048ZM11.279 17.7751L10.267 18.7865L5.16653 13.733L6.22504 12.6782L8.78546 15.2175L11.279 17.7751Z" fill="currentColor"></path>
  </symbol>
  <symbol fill="none" xmlns="http://www.w3.org/2000/svg" viewBox="0 0 24 24" id="deliveryslot-filled">
    <path fill-rule="evenodd" clip-rule="evenodd" d="M2.5 1.75H1.75V2.5V14.5V15.25H2.5H14.75L15.5 15.25H21.5H22.3276L22.2464 14.4265C22.0918 12.8584 21.1826 8.34682 16.25 5.69215V2.5V1.75H15.5H2.5ZM16.25 7.42982V13.75H20.6285C20.3055 12.1455 19.3049 9.37552 16.25 7.42982ZM6.5 16.75C4.98154 16.75 3.75 17.983 3.75 19.5C3.75 21.017 4.98154 22.25 6.5 22.25C8.01846 22.25 9.25 21.017 9.25 19.5C9.25 17.983 8.01846 16.75 6.5 16.75ZM16.5 16.75C14.9828 16.75 13.75 17.9828 13.75 19.5C13.75 21.0172 14.9828 22.25 16.5 22.25C18.0172 22.25 19.25 21.0172 19.25 19.5C19.25 17.9828 18.0172 16.75 16.5 16.75Z" fill="currentColor"></path>
  </symbol>
  <symbol fill="none" xmlns="http://www.w3.org/2000/svg" viewBox="0 0 24 24" id="explore-filled">
    <path fill-rule="evenodd" clip-rule="evenodd" d="M12 10.9C11.39 10.9 10.9 11.39 10.9 12C10.9 12.61 11.39 13.1 12 13.1C12.61 13.1 13.1 12.61 13.1 12C13.1 11.39 12.61 10.9 12 10.9ZM12 2C6.48 2 2 6.48 2 12C2 17.52 6.48 22 12 22C17.52 22 22 17.52 22 12C22 6.48 17.52 2 12 2ZM14.19 14.19L6 18L9.81 9.81L18 6L14.19 14.19Z" fill="currentColor"></path>
  </symbol>
  <symbol fill="none" xmlns="http://www.w3.org/2000/svg" viewBox="0 0 24 24" id="delete-filled">
    <path fill-rule="evenodd" clip-rule="evenodd" d="M9.88235 2.75C9.08606 2.75 8.51471 3.34946 8.51471 4V5.25H15.4853V4C15.4853 3.34946 14.9139 2.75 14.1176 2.75H9.88235ZM16.9853 5.25V4C16.9853 2.4414 15.6604 1.25 14.1176 1.25H9.88235C8.33956 1.25 7.01471 2.4414 7.01471 4V5.25H4.58824H3V6.75H3.83824V20C3.83824 21.5586 5.16309 22.75 6.70588 22.75H17.2941C18.8369 22.75 20.1618 21.5586 20.1618 20V6.75H21V5.25H19.4118H16.9853ZM9.25 18V10H10.75V18H9.25ZM13.25 10V18H14.75V10H13.25Z" fill="currentColor"></path>
  </symbol>
  <symbol fill="none" xmlns="http://www.w3.org/2000/svg" viewBox="0 0 24 24" id="orders-filled">
    <path fill-rule="evenodd" clip-rule="evenodd" d="M8.25825 6.75C8.38745 4.79918 10.0172 3.25 12 3.25C13.9828 3.25 15.6126 4.79918 15.7417 6.75H8.25825ZM6.75587 6.75L6.75 12H8.25L8.25587 6.75H15.7417L15.75 12H17.25L17.2417 6.75H6.75587ZM6.75587 6.75C6.88677 3.97044 9.18859 1.75 12 1.75C14.8114 1.75 17.1132 3.97044 17.2441 6.75H20.5H21.25V7.5V21.5V22.25H20.5H3.5H2.75V21.5V7.5V6.75H3.5H6.75587Z" fill="currentColor"></path>
  </symbol>
  <symbol fill="none" xmlns="http://www.w3.org/2000/svg" viewBox="0 0 24 24" id="viewactive-fill">
    <path d="M12 4.5C17 4.5 21.27 7.61 23 12C21.27 16.39 17 19.5 12 19.5C7 19.5 2.73 16.39 1 12C2.73 7.61 7 4.5 12 4.5ZM12 7C9.24 7 7 9.24 7 12C7 14.76 9.24 17 12 17C14.76 17 17 14.76 17 12C17 9.24 14.76 7 12 7ZM12 9C13.66 9 15 10.34 15 12C15 13.66 13.66 15 12 15C10.34 15 9 13.66 9 12C9 10.34 10.34 9 12 9Z" fill="currentColor"></path>
  </symbol>
  <symbol fill="none" xmlns="http://www.w3.org/2000/svg" viewBox="0 0 24 24" id="viewinactive-filled">
    <path d="M3.26953 3L21 20.7305L19.7305 22L16.7998 19.0801L16.3799 18.6602C16.2113 18.7276 16.0407 18.7917 15.8682 18.8516C14.6592 19.2708 13.3563 19.5 12 19.5C7 19.5 2.73 16.39 1 12C1.78 10.02 3.08023 8.29977 4.74023 7.00977L2 4.26953L3.26953 3ZM7.41211 10.0547C7.15283 10.6559 7 11.3089 7 12C7 14.76 9.24 17 12 17C12.79 17 13.5302 16.7997 14.2002 16.4697L12.6504 14.9199C12.5981 14.9324 12.5446 14.9433 12.4912 14.9531C12.3303 14.9827 12.1652 15 12 15C10.34 15 9 13.66 9 12C9 11.78 9.03008 11.5596 9.08008 11.3496L7.53027 9.7998C7.48898 9.88365 7.4492 9.96869 7.41211 10.0547ZM11.9902 4.5C12.1466 4.5 12.3022 4.50276 12.457 4.50879C17.2547 4.69554 21.3144 7.74732 22.9902 12C22.3058 13.7439 21.2167 15.2856 19.8389 16.5098C19.7472 16.5912 19.6538 16.6714 19.5596 16.75L16.6396 13.8301C16.8696 13.2601 17 12.65 17 12C17 9.32614 14.8976 7.14067 12.2568 7.00684C12.1718 7.00252 12.0861 7 12 7C11.9186 7 11.8379 7.00185 11.7578 7.00586C11.278 7.0299 10.8206 7.12499 10.3857 7.27832C10.3132 7.3039 10.2412 7.33158 10.1699 7.36035L8.00977 5.2002C9.09473 4.80646 10.2565 4.56573 11.4678 4.51172C11.6409 4.504 11.8152 4.5 11.9902 4.5ZM12.0098 9.00977C12.0618 9.00977 12.1137 9.01107 12.165 9.01367C13.7526 9.09402 15.0096 10.4019 15.0098 12.0098L14.9902 12.1699L11.8398 9.01953L12.0098 9.00977Z" fill="currentColor"></path>
  </symbol>
  <symbol fill="none" xmlns="http://www.w3.org/2000/svg" viewBox="0 0 24 24" id="rewards-filled">
    <path d="M11.25 12.7498V20.2498H12.75V12.7498H21.75V21.7498H2.25V12.7498H11.25ZM16.5605 2.9978L13.2256 6.74976H23.75V11.2498H12.75V8.24976H11.25V11.2498H0.25V6.74976H10.7744L7.43945 2.99878L8.56055 2.00171L12 5.87085L15.4395 2.00171L16.5605 2.9978Z" fill="currentColor"></path>
  </symbol>
  <symbol fill="none" xmlns="http://www.w3.org/2000/svg" viewBox="0 0 24 24" id="vouchers-filled">
    <path fill-rule="evenodd" clip-rule="evenodd" d="M2.42763 16.828L1.01005 15.087C0.997596 15.0734 0.98447 15.0582 0.971049 15.0413C0.924613 14.9829 0.86549 14.8936 0.824662 14.7737C0.727447 14.4883 0.782006 14.1752 0.977283 13.9232L2.42969 12.0026L1.00328 10.138C0.897679 10.0233 0.772423 9.83638 0.752654 9.57662C0.729029 9.26621 0.866979 9.02473 1.013 8.86841L2.42439 7.16748L0.985129 5.1685C0.893457 5.05873 0.812591 4.91057 0.787939 4.72569C0.757792 4.49958 0.822553 4.29707 0.922947 4.14647C1.10405 3.87482 1.40351 3.75 1.67198 3.75H20.872H21.872H22.622V4.5V19.5V20.25H21.872H20.872H1.67198C1.50608 20.25 1.04651 20.2025 0.840032 19.7474C0.655183 19.3399 0.846153 19.0011 0.982245 18.8355L0.984427 18.8325L0.989701 18.8252L0.994973 18.8178L1.00025 18.8105L1.00552 18.8032L1.01079 18.7959L1.01606 18.7885L1.02133 18.7812L1.0266 18.7739L1.03187 18.7666L1.03714 18.7593L1.04241 18.7519L1.04768 18.7446L1.05295 18.7373L1.05822 18.73L1.06348 18.7227L1.06875 18.7154L1.07401 18.708L1.07928 18.7007L1.08454 18.6934L1.0898 18.6861L1.09507 18.6788L1.10033 18.6715L1.10558 18.6642L1.11084 18.6569L1.1161 18.6496L1.12136 18.6423L1.12661 18.635L1.13186 18.6277L1.13712 18.6204L1.14237 18.6131L1.14762 18.6058L1.15287 18.5985L1.15811 18.5912L1.16336 18.584L1.1686 18.5767L1.17384 18.5694L1.17908 18.5621L1.18432 18.5548L1.18956 18.5476L1.19479 18.5403L1.20003 18.533L1.20526 18.5258L1.21049 18.5185L1.21572 18.5112L1.22094 18.504L1.22617 18.4967L1.23139 18.4895L1.23661 18.4822L1.24183 18.475L1.24704 18.4677L1.25226 18.4605L1.25747 18.4533L1.26268 18.446L1.26789 18.4388L1.27309 18.4316L1.27829 18.4243L1.28349 18.4171L1.28869 18.4099L1.29388 18.4027L1.29908 18.3955L1.30427 18.3883L1.30945 18.3811L1.31464 18.3738L1.31982 18.3667L1.325 18.3595L1.33017 18.3523L1.33535 18.3451L1.34052 18.3379L1.34569 18.3307L1.35085 18.3236L1.35601 18.3164L1.36117 18.3092L1.36633 18.3021L1.37148 18.2949L1.37663 18.2878L1.38178 18.2806L1.38692 18.2735L1.39206 18.2663L1.3972 18.2592L1.40233 18.2521L1.40746 18.2449L1.41258 18.2378L1.41771 18.2307L1.42283 18.2236L1.42794 18.2165L1.43306 18.2094L1.43816 18.2023L1.44327 18.1952L1.44837 18.1881L1.45347 18.181L1.45856 18.174L1.46365 18.1669L1.46874 18.1598L1.47382 18.1528L1.4789 18.1457L1.48397 18.1387L1.48904 18.1316L1.49411 18.1246L1.49917 18.1176L1.50423 18.1105L1.50928 18.1035L1.51433 18.0965L1.51938 18.0895L1.52442 18.0825L1.52945 18.0755L1.53449 18.0685L1.53952 18.0615L1.54454 18.0545L1.54956 18.0476L1.55457 18.0406L1.55958 18.0337L1.56459 18.0267L1.56959 18.0198L1.57458 18.0128L1.57957 18.0059L1.58456 17.999L1.58954 17.992L1.59452 17.9851L1.59949 17.9782L1.60446 17.9713L1.60942 17.9644L1.61437 17.9576L1.61933 17.9507L1.62427 17.9438L1.62921 17.9369L1.63415 17.9301L1.63908 17.9232L1.64401 17.9164L1.64893 17.9096L1.65384 17.9027L1.65875 17.8959L1.66365 17.8891L1.66855 17.8823L1.67345 17.8755L1.67833 17.8687L1.68322 17.8619L1.68809 17.8552L1.69296 17.8484L1.69783 17.8416L1.70269 17.8349L1.70754 17.8282L1.71239 17.8214L1.71723 17.8147L1.72206 17.808L1.72689 17.8013L1.73172 17.7946L1.73654 17.7879L1.74135 17.7812L1.74615 17.7745L1.75095 17.7679L1.75575 17.7612L1.76053 17.7545L1.76531 17.7479L1.77009 17.7413L1.77486 17.7347L1.77962 17.728L1.78437 17.7214L1.78912 17.7148L1.79386 17.7083L1.7986 17.7017L1.80333 17.6951L1.80805 17.6886L1.81277 17.682L1.81748 17.6755L1.82218 17.6689L1.82687 17.6624L1.83156 17.6559L1.83624 17.6494L1.84092 17.6429L1.84559 17.6364L1.85025 17.6299L1.8549 17.6235L1.85955 17.617L1.86419 17.6106L1.86882 17.6042L1.87345 17.5977L1.87806 17.5913L1.88268 17.5849L1.88728 17.5785L1.89187 17.5721L1.89646 17.5658L1.90104 17.5594L1.90562 17.553L1.91018 17.5467L1.91474 17.5404L1.91929 17.534L1.92384 17.5277L1.92837 17.5214L1.9329 17.5152L1.93742 17.5089L1.94193 17.5026L1.94644 17.4963L1.95094 17.4901L1.95542 17.4839L1.9599 17.4776L1.96438 17.4714L1.96884 17.4652L1.9733 17.459L1.97775 17.4529L1.98219 17.4467L1.98662 17.4405L1.99104 17.4344L1.99546 17.4283L1.99987 17.4221L2.00427 17.416L2.00866 17.4099L2.01304 17.4038L2.01741 17.3978L2.02178 17.3917L2.02613 17.3857L2.03048 17.3796L2.03482 17.3736L2.03915 17.3676L2.04347 17.3616L2.04779 17.3556L2.05209 17.3496L2.05639 17.3436L2.06067 17.3377L2.06495 17.3318L2.06922 17.3258L2.07348 17.3199L2.07773 17.314L2.08197 17.3081L2.0862 17.3022L2.09042 17.2964L2.09464 17.2905L2.09884 17.2847L2.10304 17.2788L2.10722 17.273L2.1114 17.2672L2.11557 17.2614L2.11973 17.2557L2.12387 17.2499L2.12801 17.2442L2.13214 17.2384L2.13626 17.2327L2.14037 17.227L2.14447 17.2213L2.14856 17.2156L2.15264 17.21L2.15671 17.2043L2.16077 17.1987L2.16483 17.193L2.16887 17.1874L2.1729 17.1818L2.17692 17.1762L2.18093 17.1707L2.18493 17.1651L2.18892 17.1596L2.1929 17.154L2.19687 17.1485L2.20083 17.143L2.20478 17.1375L2.20872 17.1321L2.21265 17.1266L2.21657 17.1212L2.22048 17.1157L2.22438 17.1103L2.22827 17.1049L2.23214 17.0995L2.23601 17.0942L2.23986 17.0888L2.24371 17.0835L2.24754 17.0781L2.25137 17.0728L2.25518 17.0675L2.25898 17.0623L2.26277 17.057L2.26655 17.0518L2.27032 17.0465L2.27408 17.0413L2.27782 17.0361L2.28156 17.0309L2.28528 17.0257L2.289 17.0206L2.2927 17.0154L2.29639 17.0103L2.30007 17.0052L2.30374 17.0001L2.30739 16.995L2.31104 16.99L2.31467 16.9849L2.31829 16.9799L2.3219 16.9749L2.3255 16.9699L2.32909 16.9649L2.33267 16.9599L2.33623 16.955L2.33978 16.95L2.34332 16.9451L2.34685 16.9402L2.35037 16.9353L2.35387 16.9305L2.35737 16.9256L2.36085 16.9208L2.36432 16.916L2.36777 16.9112L2.37122 16.9064L2.37465 16.9016L2.37807 16.8969L2.38148 16.8921L2.38488 16.8874L2.38826 16.8827L2.39163 16.878L2.39499 16.8734L2.39834 16.8687L2.40167 16.8641L2.40499 16.8595L2.4083 16.8549L2.4116 16.8503L2.41488 16.8457L2.41815 16.8412L2.42141 16.8367L2.42465 16.8322L2.42763 16.828ZM15.8719 14.25H7.87192V12.75H15.8719V14.25ZM9.87192 11.25H13.9719V9.75H9.87192V11.25Z" fill="currentColor"></path>
  </symbol>
  <symbol fill="none" xmlns="http://www.w3.org/2000/svg" viewBox="0 0 24 24" id="edit-filled">
    <path fill-rule="evenodd" clip-rule="evenodd" d="M21.3093 7.75048L9.95728 19.0961L2.53125 21.4702L4.90531 13.9932L16.2487 2.68982L21.3093 7.75048ZM11.279 17.7751L10.267 18.7865L5.16653 13.733L6.22504 12.6782L8.78546 15.2175L11.279 17.7751Z" fill="currentColor"></path>
  </symbol>
  <symbol fill="none" xmlns="http://www.w3.org/2000/svg" viewBox="0 0 24 24" id="deliveryslot-filled">
    <path fill-rule="evenodd" clip-rule="evenodd" d="M2.5 1.75H1.75V2.5V14.5V15.25H2.5H14.75L15.5 15.25H21.5H22.3276L22.2464 14.4265C22.0918 12.8584 21.1826 8.34682 16.25 5.69215V2.5V1.75H15.5H2.5ZM16.25 7.42982V13.75H20.6285C20.3055 12.1455 19.3049 9.37552 16.25 7.42982ZM6.5 16.75C4.98154 16.75 3.75 17.983 3.75 19.5C3.75 21.017 4.98154 22.25 6.5 22.25C8.01846 22.25 9.25 21.017 9.25 19.5C9.25 17.983 8.01846 16.75 6.5 16.75ZM16.5 16.75C14.9828 16.75 13.75 17.9828 13.75 19.5C13.75 21.0172 14.9828 22.25 16.5 22.25C18.0172 22.25 19.25 21.0172 19.25 19.5C19.25 17.9828 18.0172 16.75 16.5 16.75Z" fill="currentColor"></path>
  </symbol>
  <symbol fill="none" xmlns="http://www.w3.org/2000/svg" viewBox="0 0 24 24" id="datepicker-filled">
    <path d="M8.25 3.75H15.75V2H17.25V3.75H22.25V22.1982L1.75 22.252V3.75H6.75V2H8.25V3.75ZM3.25 20.748L20.75 20.7021V10.25H3.25V20.748Z" fill="currentColor"></path>
  </symbol>
  <symbol fill="none" xmlns="http://www.w3.org/2000/svg" viewBox="0 0 24 24" id="contacts-filled">
    <path fill-rule="evenodd" clip-rule="evenodd" d="M20 0H4V2H20V0ZM4 24H20V22H4V24ZM20 4H4C2.9 4 2 4.9 2 6V18C2 19.1 2.9 20 4 20H20C21.1 20 22 19.1 22 18V6C22 4.9 21.1 4 20 4ZM12 6.75C13.24 6.75 14.25 7.76 14.25 9C14.25 10.24 13.24 11.25 12 11.25C10.76 11.25 9.75 10.24 9.75 9C9.75 7.76 10.76 6.75 12 6.75ZM17 17H7V15.5C7 13.83 10.33 13 12 13C13.67 13 17 13.83 17 15.5V17Z" fill="currentColor"></path>
  </symbol>
  <symbol fill="none" xmlns="http://www.w3.org/2000/svg" viewBox="0 0 24 24" id="camera-filled">
    <path fill-rule="evenodd" clip-rule="evenodd" d="M9.5 2.75H8.95943L8.78849 3.26283L7.95943 5.75H2.5H1.75V6.5V20.5V21.25H2.5H21.5H22.25V20.5V6.5V5.75H21.5H16.0406L15.2115 3.26283L15.0406 2.75H14.5H9.5ZM9.25 13.5C9.25 11.9812 10.4812 10.75 12 10.75C13.5188 10.75 14.75 11.9812 14.75 13.5C14.75 15.0188 13.5188 16.25 12 16.25C10.4812 16.25 9.25 15.0188 9.25 13.5ZM12 9.25C9.65279 9.25 7.75 11.1528 7.75 13.5C7.75 15.8472 9.65279 17.75 12 17.75C14.3472 17.75 16.25 15.8472 16.25 13.5C16.25 11.1528 14.3472 9.25 12 9.25Z" fill="currentColor"></path>
  </symbol>
  <symbol fill="none" xmlns="http://www.w3.org/2000/svg" viewBox="0 0 24 24" id="coupons-filled">
    <path fill-rule="evenodd" clip-rule="evenodd" d="M2 3.75H1.25V4.5V8.4V9.03535L1.8767 9.1398C3.35596 9.38634 4.45 10.6066 4.45 12C4.45 13.4257 3.32961 14.6976 1.91718 14.8546L1.25 14.9287V15.6V19.5V20.25H2H22H22.75V19.5V15.6V14.9287L22.0828 14.8546C20.6575 14.6962 19.55 13.5127 19.55 12C19.55 10.4873 20.6575 9.30378 22.0828 9.14541L22.75 9.07128V8.4V4.5V3.75H22H2ZM14.1 11.25H10V9.75H14.1V11.25ZM16 14.25H8V12.75H16V14.25Z" fill="currentColor"></path>
  </symbol>
  <symbol fill="none" xmlns="http://www.w3.org/2000/svg" viewBox="0 0 24 24" id="clubcard-filled">
    <path fill-rule="evenodd" clip-rule="evenodd" d="M0.75 6C0.75 4.78579 1.78579 3.75 3 3.75H21C22.2142 3.75 23.25 4.78579 23.25 6V18C23.25 19.2142 22.2142 20.25 21 20.25H3C1.78579 20.25 0.75 19.2142 0.75 18V6ZM16 14.25H8V12.75H16V14.25ZM10 11.25H14.1V9.75H10V11.25Z" fill="currentColor"></path>
  </symbol>
  <symbol fill="none" xmlns="http://www.w3.org/2000/svg" viewBox="0 0 24 24" id="explore-filled">
    <path fill-rule="evenodd" clip-rule="evenodd" d="M12 10.9C11.39 10.9 10.9 11.39 10.9 12C10.9 12.61 11.39 13.1 12 13.1C12.61 13.1 13.1 12.61 13.1 12C13.1 11.39 12.61 10.9 12 10.9ZM12 2C6.48 2 2 6.48 2 12C2 17.52 6.48 22 12 22C17.52 22 22 17.52 22 12C22 6.48 17.52 2 12 2ZM14.19 14.19L6 18L9.81 9.81L18 6L14.19 14.19Z" fill="currentColor"></path>
  </symbol>
  <symbol fill="none" xmlns="http://www.w3.org/2000/svg" viewBox="0 0 24 24" id="home-filled">
    <path fill-rule="evenodd" clip-rule="evenodd" d="M12 1.54224L21.25 8.88782V22.25H13.75V14.25H10.25V22.25H2.75V8.88782L12 1.54224Z" fill="currentColor"></path>
  </symbol>
  <symbol fill="none" xmlns="http://www.w3.org/2000/svg" viewBox="0 0 24 24" id="favourite-filled">
    <path fill-rule="evenodd" clip-rule="evenodd" d="M1.75 9.567C1.75 5.99863 4.21938 3.25 7.598 3.25C8.49383 3.25 9.27874 3.38373 10.0378 3.73099C10.7259 4.04581 11.3517 4.51752 12 5.14791C12.6483 4.51752 13.2741 4.04581 13.9622 3.73099C14.7213 3.38373 15.5062 3.25 16.402 3.25C19.7726 3.25 22.25 5.98998 22.25 9.474C22.25 12.5934 20.0387 15.4436 17.8308 17.5373C15.5865 19.6656 13.1581 21.1868 12.3816 21.6457L12 21.8712L11.6184 21.6457C10.8423 21.187 8.41457 19.6673 6.17078 17.552C3.96545 15.473 1.75 12.6451 1.75 9.567Z" fill="currentColor"></path>
  </symbol>
  <symbol fill="none" xmlns="http://www.w3.org/2000/svg" viewBox="0 0 24 24" id="microphone-filled">
    <path fill-rule="evenodd" clip-rule="evenodd" d="M12 14C13.66 14 14.99 12.66 14.99 11L15 5C15 3.34 13.66 2 12 2C10.34 2 9 3.34 9 5V11C9 12.66 10.34 14 12 14ZM17.3 11C17.3 14 14.76 16.1 12 16.1C9.24 16.1 6.7 14 6.7 11H5C5 14.41 7.72 17.23 11 17.72V21H13V17.72C16.28 17.24 19 14.42 19 11H17.3Z" fill="currentColor"></path>
  </symbol>
  <symbol fill="none" xmlns="http://www.w3.org/2000/svg" viewBox="0 0 24 24" id="mylocation-filled">
    <path d="M19.2954 4.70605L3.0376 11.0757L11.8231 12.1548L12.9371 20.9752L19.2954 4.70605Z" fill="currentColor" stroke="currentColor" stroke-width="1.5" stroke-miterlimit="4.13357"></path>
  </symbol>
</svg>
