<svg width="0" height="0" class="hidden">
  <symbol fill="none" xmlns="http://www.w3.org/2000/svg" viewBox="0 0 24 24" id="car">
    <path fill-rule="evenodd" clip-rule="evenodd" d="M7.84947 3.75C6.85858 3.75 5.98433 4.39825 5.69649 5.34641L4.51148 9.25H19.4885L18.3035 5.34642C18.0157 4.39825 17.1414 3.75 16.1505 3.75H7.84947ZM21.0713 9.30005L19.7388 4.91069C19.2591 3.33041 17.802 2.25 16.1505 2.25H7.84947C6.19798 2.25 4.7409 3.33041 4.26117 4.91069L2.92869 9.30005C1.4062 9.57004 0.25 10.9 0.25 12.5V15.5C0.25 17.0368 1.31665 18.3245 2.75 18.663V20C2.75 21.2426 3.75737 22.25 5.00001 22.25C6.24249 22.25 7.25 21.243 7.25 20.0002V19.9962V19.9921V19.988V19.984V19.9799V19.9758V19.9718V19.9677V19.9636V19.9595V19.9555V19.9514V19.9473V19.9432V19.9391V19.935V19.9309V19.9269V19.9228V19.9187V19.9146V19.9105V19.9064V19.9023V19.8982V19.894V19.8899V19.8858V19.8817V19.8776V19.8735V19.8694V19.8653V19.8611V19.857V19.8529V19.8488V19.8446V19.8405V19.8364V19.8323V19.8281V19.824V19.8199V19.8157V19.8116V19.8075V19.8033V19.7992V19.795V19.7909V19.7867V19.7826V19.7784V19.7743V19.7701V19.766V19.7618V19.7577V19.7535V19.7494V19.7452V19.7411V19.7369V19.7327V19.7286V19.7244V19.7203V19.7161V19.7119V19.7078V19.7036V19.6994V19.6953V19.6911V19.6869V19.6828V19.6786V19.6744V19.6702V19.6661V19.6619V19.6577V19.6535V19.6494V19.6452V19.641V19.6368V19.6326V19.6285V19.6243V19.6201V19.6159V19.6117V19.6075V19.6033V19.5992V19.595V19.5908V19.5866V19.5824V19.5782V19.574V19.5698V19.5657V19.5615V19.5573V19.5531V19.5489V19.5447V19.5405V19.5363V19.5321V19.5279V19.5237V19.5195V19.5153V19.5112V19.507V19.5028V19.4986V19.4944V19.4902V19.486V19.4818V19.4776V19.4734V19.4692V19.465V19.4608V19.4566V19.4524V19.4482V19.444V19.4398V19.4356V19.4314V19.4272V19.423V19.4188V19.4146V19.4105V19.4063V19.4021V19.3979V19.3937V19.3895V19.3853V19.3811V19.3769V19.3727V19.3685V19.3643V19.3601V19.3559V19.3517V19.3475V19.3434V19.3392V19.335V19.3308V19.3266V19.3224V19.3182V19.314V19.3098V19.3057V19.3015V19.2973V19.2931V19.2889V19.2847V19.2805V19.2764V19.2722V19.268V19.2638V19.2596V19.2555V19.2513V19.2471V19.2429V19.2387V19.2346V19.2304V19.2262V19.222V19.2179V19.2137V19.2095V19.2054V19.2012V19.197V19.1929V19.1887V19.1845V19.1804V19.1762V19.172V19.1679V19.1637V19.1596V19.1554V19.1512V19.1471V19.1429V19.1388V19.1346V19.1305V19.1263V19.1222V19.118V19.1139V19.1097V19.1056V19.1014V19.0973V19.0932V19.089V19.0849V19.0808V19.0766V19.0725V19.0684V19.0642V19.0601V19.056V19.0518V19.0477V19.0436V19.0395V19.0354V19.0312V19.0271V19.023V19.0189V19.0148V19.0107V19.0066V19.0024V18.9983V18.9942V18.9901V18.986V18.9819V18.9778V18.9737V18.9697V18.9656V18.9615V18.9574V18.9533V18.9492V18.9451V18.9411V18.937V18.9329V18.9288V18.9248V18.9207V18.9166V18.9125V18.9085V18.9044V18.9004V18.8963V18.8922V18.8882V18.8841V18.8801V18.876V18.872V18.868V18.8639V18.8599V18.8558V18.8518V18.8478V18.8437V18.8397V18.8357V18.8317V18.8276V18.8236V18.8196V18.8156V18.8116V18.8076V18.8036V18.7996V18.7956V18.7916V18.7876V18.7836V18.7796V18.7756V18.7716V18.7676V18.7636V18.7597V18.7557V18.7517V18.75H16.75V20C16.75 21.2426 17.7574 22.25 19 22.25C20.2425 22.25 21.25 21.243 21.25 20.0002V19.9962V19.9921V19.988V19.984V19.9799V19.9758V19.9718V19.9677V19.9636V19.9595V19.9555V19.9514V19.9473V19.9432V19.9391V19.935V19.9309V19.9269V19.9228V19.9187V19.9146V19.9105V19.9064V19.9023V19.8982V19.894V19.8899V19.8858V19.8817V19.8776V19.8735V19.8694V19.8653V19.8611V19.857V19.8529V19.8488V19.8446V19.8405V19.8364V19.8323V19.8281V19.824V19.8199V19.8157V19.8116V19.8075V19.8033V19.7992V19.795V19.7909V19.7867V19.7826V19.7784V19.7743V19.7701V19.766V19.7618V19.7577V19.7535V19.7494V19.7452V19.7411V19.7369V19.7327V19.7286V19.7244V19.7203V19.7161V19.7119V19.7078V19.7036V19.6994V19.6953V19.6911V19.6869V19.6828V19.6786V19.6744V19.6702V19.6661V19.6619V19.6577V19.6535V19.6494V19.6452V19.641V19.6368V19.6326V19.6285V19.6243V19.6201V19.6159V19.6117V19.6075V19.6033V19.5992V19.595V19.5908V19.5866V19.5824V19.5782V19.574V19.5698V19.5657V19.5615V19.5573V19.5531V19.5489V19.5447V19.5405V19.5363V19.5321V19.5279V19.5237V19.5195V19.5153V19.5112V19.507V19.5028V19.4986V19.4944V19.4902V19.486V19.4818V19.4776V19.4734V19.4692V19.465V19.4608V19.4566V19.4524V19.4482V19.444V19.4398V19.4356V19.4314V19.4272V19.423V19.4188V19.4146V19.4105V19.4063V19.4021V19.3979V19.3937V19.3895V19.3853V19.3811V19.3769V19.3727V19.3685V19.3643V19.3601V19.3559V19.3517V19.3475V19.3434V19.3392V19.335V19.3308V19.3266V19.3224V19.3182V19.314V19.3098V19.3057V19.3015V19.2973V19.2931V19.2889V19.2847V19.2805V19.2764V19.2722V19.268V19.2638V19.2596V19.2555V19.2513V19.2471V19.2429V19.2387V19.2346V19.2304V19.2262V19.222V19.2179V19.2137V19.2095V19.2054V19.2012V19.197V19.1929V19.1887V19.1845V19.1804V19.1762V19.172V19.1679V19.1637V19.1596V19.1554V19.1512V19.1471V19.1429V19.1388V19.1346V19.1305V19.1263V19.1222V19.118V19.1139V19.1097V19.1056V19.1014V19.0973V19.0932V19.089V19.0849V19.0808V19.0766V19.0725V19.0684V19.0642V19.0601V19.056V19.0518V19.0477V19.0436V19.0395V19.0354V19.0312V19.0271V19.023V19.0189V19.0148V19.0107V19.0066V19.0024V18.9983V18.9942V18.9901V18.986V18.9819V18.9778V18.9737V18.9697V18.9656V18.9615V18.9574V18.9533V18.9492V18.9451V18.9411V18.937V18.9329V18.9288V18.9248V18.9207V18.9166V18.9125V18.9085V18.9044V18.9004V18.8963V18.8922V18.8882V18.8841V18.8801V18.876V18.872V18.868V18.8639V18.8599V18.8558V18.8518V18.8478V18.8437V18.8397V18.8357V18.8317V18.8276V18.8236V18.8196V18.8156V18.8116V18.8076V18.8036V18.7996V18.7956V18.7916V18.7876V18.7836V18.7796V18.7756V18.7716V18.7676V18.7636V18.7597V18.7557V18.7517V18.7477V18.7438V18.7398V18.7358V18.7319V18.7279V18.724V18.72V18.7161V18.7121V18.7082V18.7042V18.7003V18.6964V18.6924V18.6885V18.6846V18.6807V18.6767V18.6728V18.6689V18.665V18.663C22.6833 18.3245 23.75 17.0368 23.75 15.5V12.5C23.75 10.9 22.5938 9.57004 21.0713 9.30005ZM19.75 18.75H18.25V20C18.25 20.4142 18.5858 20.75 19 20.75C19.4144 20.75 19.75 20.4143 19.75 20.0002V19.9962V19.9921V19.988V19.984V19.9799V19.9758V19.9718V19.9677V19.9636V19.9595V19.9555V19.9514V19.9473V19.9432V19.9391V19.935V19.9309V19.9269V19.9228V19.9187V19.9146V19.9105V19.9064V19.9023V19.8982V19.894V19.8899V19.8858V19.8817V19.8776V19.8735V19.8694V19.8653V19.8611V19.857V19.8529V19.8488V19.8446V19.8405V19.8364V19.8323V19.8281V19.824V19.8199V19.8157V19.8116V19.8075V19.8033V19.7992V19.795V19.7909V19.7867V19.7826V19.7784V19.7743V19.7701V19.766V19.7618V19.7577V19.7535V19.7494V19.7452V19.7411V19.7369V19.7327V19.7286V19.7244V19.7203V19.7161V19.7119V19.7078V19.7036V19.6994V19.6953V19.6911V19.6869V19.6828V19.6786V19.6744V19.6702V19.6661V19.6619V19.6577V19.6535V19.6494V19.6452V19.641V19.6368V19.6326V19.6285V19.6243V19.6201V19.6159V19.6117V19.6075V19.6033V19.5992V19.595V19.5908V19.5866V19.5824V19.5782V19.574V19.5698V19.5657V19.5615V19.5573V19.5531V19.5489V19.5447V19.5405V19.5363V19.5321V19.5279V19.5237V19.5195V19.5153V19.5112V19.507V19.5028V19.4986V19.4944V19.4902V19.486V19.4818V19.4776V19.4734V19.4692V19.465V19.4608V19.4566V19.4524V19.4482V19.444V19.4398V19.4356V19.4314V19.4272V19.423V19.4188V19.4146V19.4105V19.4063V19.4021V19.3979V19.3937V19.3895V19.3853V19.3811V19.3769V19.3727V19.3685V19.3643V19.3601V19.3559V19.3517V19.3475V19.3434V19.3392V19.335V19.3308V19.3266V19.3224V19.3182V19.314V19.3098V19.3057V19.3015V19.2973V19.2931V19.2889V19.2847V19.2805V19.2764V19.2722V19.268V19.2638V19.2596V19.2555V19.2513V19.2471V19.2429V19.2387V19.2346V19.2304V19.2262V19.222V19.2179V19.2137V19.2095V19.2054V19.2012V19.197V19.1929V19.1887V19.1845V19.1804V19.1762V19.172V19.1679V19.1637V19.1596V19.1554V19.1512V19.1471V19.1429V19.1388V19.1346V19.1305V19.1263V19.1222V19.118V19.1139V19.1097V19.1056V19.1014V19.0973V19.0932V19.089V19.0849V19.0808V19.0766V19.0725V19.0684V19.0642V19.0601V19.056V19.0518V19.0477V19.0436V19.0395V19.0354V19.0312V19.0271V19.023V19.0189V19.0148V19.0107V19.0066V19.0024V18.9983V18.9942V18.9901V18.986V18.9819V18.9778V18.9737V18.9697V18.9656V18.9615V18.9574V18.9533V18.9492V18.9451V18.9411V18.937V18.9329V18.9288V18.9248V18.9207V18.9166V18.9125V18.9085V18.9044V18.9004V18.8963V18.8922V18.8882V18.8841V18.8801V18.876V18.872V18.868V18.8639V18.8599V18.8558V18.8518V18.8478V18.8437V18.8397V18.8357V18.8317V18.8276V18.8236V18.8196V18.8156V18.8116V18.8076V18.8036V18.7996V18.7956V18.7916V18.7876V18.7836V18.7796V18.7756V18.7716V18.7676V18.7636V18.7597V18.7557V18.7517V18.75ZM5.75 18.75H4.25V20C4.25 20.4142 4.58579 20.75 5 20.75C5.41437 20.75 5.75 20.4143 5.75 20.0002V19.9962V19.9921V19.988V19.984V19.9799V19.9758V19.9718V19.9677V19.9636V19.9595V19.9555V19.9514V19.9473V19.9432V19.9391V19.935V19.9309V19.9269V19.9228V19.9187V19.9146V19.9105V19.9064V19.9023V19.8982V19.894V19.8899V19.8858V19.8817V19.8776V19.8735V19.8694V19.8653V19.8611V19.857V19.8529V19.8488V19.8446V19.8405V19.8364V19.8323V19.8281V19.824V19.8199V19.8157V19.8116V19.8075V19.8033V19.7992V19.795V19.7909V19.7867V19.7826V19.7784V19.7743V19.7701V19.766V19.7618V19.7577V19.7535V19.7494V19.7452V19.7411V19.7369V19.7327V19.7286V19.7244V19.7203V19.7161V19.7119V19.7078V19.7036V19.6994V19.6953V19.6911V19.6869V19.6828V19.6786V19.6744V19.6702V19.6661V19.6619V19.6577V19.6535V19.6494V19.6452V19.641V19.6368V19.6326V19.6285V19.6243V19.6201V19.6159V19.6117V19.6075V19.6033V19.5992V19.595V19.5908V19.5866V19.5824V19.5782V19.574V19.5698V19.5657V19.5615V19.5573V19.5531V19.5489V19.5447V19.5405V19.5363V19.5321V19.5279V19.5237V19.5195V19.5153V19.5112V19.507V19.5028V19.4986V19.4944V19.4902V19.486V19.4818V19.4776V19.4734V19.4692V19.465V19.4608V19.4566V19.4524V19.4482V19.444V19.4398V19.4356V19.4314V19.4272V19.423V19.4188V19.4146V19.4105V19.4063V19.4021V19.3979V19.3937V19.3895V19.3853V19.3811V19.3769V19.3727V19.3685V19.3643V19.3601V19.3559V19.3517V19.3475V19.3434V19.3392V19.335V19.3308V19.3266V19.3224V19.3182V19.314V19.3098V19.3057V19.3015V19.2973V19.2931V19.2889V19.2847V19.2805V19.2764V19.2722V19.268V19.2638V19.2596V19.2555V19.2513V19.2471V19.2429V19.2387V19.2346V19.2304V19.2262V19.222V19.2179V19.2137V19.2095V19.2054V19.2012V19.197V19.1929V19.1887V19.1845V19.1804V19.1762V19.172V19.1679V19.1637V19.1596V19.1554V19.1512V19.1471V19.1429V19.1388V19.1346V19.1305V19.1263V19.1222V19.118V19.1139V19.1097V19.1056V19.1014V19.0973V19.0932V19.089V19.0849V19.0808V19.0766V19.0725V19.0684V19.0642V19.0601V19.056V19.0518V19.0477V19.0436V19.0395V19.0354V19.0312V19.0271V19.023V19.0189V19.0148V19.0107V19.0066V19.0024V18.9983V18.9942V18.9901V18.986V18.9819V18.9778V18.9737V18.9697V18.9656V18.9615V18.9574V18.9533V18.9492V18.9451V18.9411V18.937V18.9329V18.9288V18.9248V18.9207V18.9166V18.9125V18.9085V18.9044V18.9004V18.8963V18.8922V18.8882V18.8841V18.8801V18.876V18.872V18.868V18.8639V18.8599V18.8558V18.8518V18.8478V18.8437V18.8397V18.8357V18.8317V18.8276V18.8236V18.8196V18.8156V18.8116V18.8076V18.8036V18.7996V18.7956V18.7916V18.7876V18.7836V18.7796V18.7756V18.7716V18.7676V18.7636V18.7597V18.7557V18.7517V18.75ZM4.25 14C4.25 13.5858 4.58579 13.25 5 13.25C5.41421 13.25 5.75 13.5858 5.75 14C5.75 14.4142 5.41421 14.75 5 14.75C4.58579 14.75 4.25 14.4142 4.25 14ZM5 11.75C3.75736 11.75 2.75 12.7574 2.75 14C2.75 15.2426 3.75736 16.25 5 16.25C6.24264 16.25 7.25 15.2426 7.25 14C7.25 12.7574 6.24264 11.75 5 11.75ZM18.25 14C18.25 13.5858 18.5858 13.25 19 13.25C19.4142 13.25 19.75 13.5858 19.75 14C19.75 14.4142 19.4142 14.75 19 14.75C18.5858 14.75 18.25 14.4142 18.25 14ZM19 11.75C17.7574 11.75 16.75 12.7574 16.75 14C16.75 15.2426 17.7574 16.25 19 16.25C20.2426 16.25 21.25 15.2426 21.25 14C21.25 12.7574 20.2426 11.75 19 11.75ZM1.75 12.5C1.75 11.5335 2.5335 10.75 3.5 10.75H20.5C21.4665 10.75 22.25 11.5335 22.25 12.5V15.5C22.25 16.4665 21.4665 17.25 20.5 17.25H3.5C2.5335 17.25 1.75 16.4665 1.75 15.5V12.5Z" fill="currentColor"></path>
  </symbol>
  <symbol fill="none" xmlns="http://www.w3.org/2000/svg" viewBox="0 0 24 24" id="cash">
    <path d="M23.0992 20.0991H0.899994V3.8999H23.0992V20.0991ZM2.09921 18.8999H21.9V5.09912H2.09921V18.8999ZM11.9283 7.69385C12.5473 7.69402 13.0951 7.84844 13.5426 8.15967C13.9893 8.47063 14.297 8.91031 14.485 9.41357L13.9234 9.62354L13.3609 9.8335C13.2437 9.51951 13.0718 9.29348 12.857 9.14404C12.6428 8.99506 12.3445 8.89324 11.9283 8.89307C11.39 8.89307 10.8954 9.43521 10.8951 10.2583C10.8951 10.5701 10.9671 10.8364 11.0758 11.1411H12.8502V12.3413H11.4644C11.5038 12.5383 11.5308 12.7503 11.5309 12.979C11.5308 13.4389 11.4074 13.9101 11.2252 14.3403C11.4535 14.3411 11.6618 14.3882 11.86 14.48C11.9899 14.5402 12.0987 14.612 12.1783 14.6665C12.268 14.7279 12.3152 14.763 12.3746 14.7983C12.4616 14.8501 12.5499 14.8881 12.7105 14.8882L12.8248 14.8843C13.0687 14.8677 13.1735 14.7975 13.2428 14.7339C13.3694 14.6172 13.4513 14.4625 13.6519 14.1313L14.1646 14.4419L14.6783 14.7534C14.5391 14.9832 14.3438 15.3521 14.0553 15.6177C13.7609 15.8883 13.393 16.0454 12.9205 16.0806L12.7105 16.0884C12.296 16.0883 11.9978 15.9709 11.7603 15.8296C11.6577 15.7685 11.5575 15.6964 11.4996 15.6567C11.432 15.6105 11.3914 15.5853 11.356 15.5688C11.3086 15.5469 11.0783 15.4118 9.98398 16.0239L9.30038 15.0444L9.39609 14.9575C9.61965 14.7411 9.84455 14.4369 10.0191 14.0942C10.2196 13.7004 10.3307 13.3024 10.3307 12.979C10.3306 12.7528 10.291 12.5511 10.2291 12.3413H9.35019V11.1411H9.81796C9.74717 10.8781 9.69589 10.5848 9.69589 10.2583C9.69616 9.08053 10.4564 7.69385 11.9283 7.69385Z" fill="currentColor"></path>
  </symbol>
  <symbol fill="none" xmlns="http://www.w3.org/2000/svg" viewBox="0 0 24 24" id="cardholder">
    <path d="M20.993 3.8999C22.1561 3.89999 23.0991 4.84329 23.0994 6.00635V17.9927C23.0993 19.1559 22.1562 20.099 20.993 20.0991H3.00568C1.84209 20.0988 0.900296 19.1553 0.900208 17.9927V6.00635C0.900507 4.84393 1.84222 3.90019 3.00568 3.8999H20.993ZM3.00568 5.09912C2.50599 5.09941 2.09973 5.50563 2.09943 6.00635V17.9927C2.09951 18.4936 2.50586 18.8996 3.00568 18.8999H20.993C21.4935 18.8998 21.9001 18.4932 21.9002 17.9927V6.00635C21.8999 5.50603 21.4933 5.09921 20.993 5.09912H3.00568ZM12.0008 12.2339C14.4804 12.2343 16.6786 14.0622 17.3045 16.5776L17.4901 17.3228H6.51056L6.69611 16.5776L6.75958 16.3433C7.46018 13.9491 9.59849 12.2339 12.0008 12.2339ZM12.0008 13.4331C10.3607 13.4331 8.81604 14.5022 8.1131 16.1226H15.8875C15.1847 14.5025 13.6406 13.4335 12.0008 13.4331ZM11.9998 6.67822C13.405 6.67822 14.5447 7.81696 14.5447 9.22217C14.5447 10.6274 13.405 11.7671 11.9998 11.7671C10.5947 11.767 9.45596 10.6273 9.45587 9.22217C9.45593 7.81701 10.5947 6.67831 11.9998 6.67822ZM11.9998 7.87744C11.2574 7.87753 10.6551 8.47975 10.6551 9.22217C10.6552 9.96456 11.2574 10.5668 11.9998 10.5669C12.7423 10.5669 13.3445 9.96461 13.3445 9.22217C13.3445 8.4797 12.7423 7.87744 11.9998 7.87744Z" fill="currentColor"></path>
  </symbol>
  <symbol fill="none" xmlns="http://www.w3.org/2000/svg" viewBox="0 0 24 24" id="add-money">
    <path d="M11.9996 0.899902C16.3306 0.899902 20.0797 3.38189 21.9088 6.99951H20.5435C18.8245 4.06876 15.6427 2.09912 11.9996 2.09912C6.53228 2.09933 2.09942 6.53219 2.09921 11.9995C2.09921 17.467 6.53215 21.8997 11.9996 21.8999C15.6431 21.8999 18.8256 19.9308 20.5445 16.9995H21.9098C20.0808 20.6177 16.331 23.0991 11.9996 23.0991C5.86941 23.0989 0.899994 18.1298 0.899994 11.9995C0.900205 5.86945 5.86954 0.900113 11.9996 0.899902ZM12.2008 4.99951C13.184 4.99964 14.0389 5.24408 14.732 5.72607C15.4246 6.20789 15.907 6.89238 16.2037 7.68701L15.5006 7.94971L14.7984 8.21143C14.5902 7.65376 14.2778 7.23733 13.8756 6.95752C13.4739 6.67825 12.9305 6.49964 12.2008 6.49951C11.1216 6.49951 10.2507 7.56611 10.2506 8.99951C10.2506 9.61184 10.4097 10.1223 10.6236 10.7017H13.5367V12.2017H11.1314C11.2304 12.5947 11.3003 13.0246 11.3004 13.4995C11.3004 14.3495 11.0334 15.2352 10.65 16.02C11.163 15.9511 11.5907 16.0197 11.9859 16.2026C12.1819 16.2934 12.3477 16.4021 12.4771 16.4907C12.6193 16.588 12.7079 16.6535 12.815 16.7173C12.9895 16.8211 13.1781 16.8999 13.4957 16.8999L13.7027 16.8931C14.1534 16.862 14.3795 16.7279 14.5396 16.5806C14.7821 16.3573 14.9396 16.0585 15.2594 15.5308L15.901 15.9194L16.5416 16.3081C16.2988 16.7088 16.0001 17.2757 15.5553 17.6851C15.1136 18.0912 14.5588 18.3338 13.8228 18.3882L13.4957 18.3999C12.8608 18.3999 12.4099 18.222 12.0475 18.0063C11.8863 17.9104 11.7317 17.799 11.6295 17.729C11.5147 17.6504 11.4338 17.6 11.356 17.564C11.1629 17.4745 10.6868 17.3057 8.86679 18.3237L8.0123 17.1001L8.18124 16.9468C8.57357 16.5671 8.96021 16.0409 9.25937 15.4536C9.60254 14.7797 9.80038 14.0841 9.80038 13.4995C9.80033 13.0326 9.70762 12.625 9.56992 12.2017H8.33066V10.7017H9.03281C8.87529 10.2034 8.75058 9.64243 8.75058 8.99951C8.75075 7.12292 9.95448 4.99951 12.2008 4.99951ZM21.7496 11.2495H23.9996V12.7495H21.7496V14.9995H20.2496V12.7495H17.9996V11.2495H20.2496V8.99951H21.7496V11.2495Z" fill="currentColor"></path>
  </symbol>
  <symbol fill="none" xmlns="http://www.w3.org/2000/svg" viewBox="0 0 24 24" id="credit-card-balance-transfer">
    <path d="M19.9549 5.76172C21.0925 5.87751 21.9812 6.83872 21.9812 8.00684V15.9932C21.9812 17.2391 20.9703 18.2497 19.7244 18.25H7.73711C6.49036 18.2499 5.48134 17.2386 5.48125 15.9932V14H6.98125V15.9932C6.98134 16.4115 7.32009 16.7499 7.73711 16.75H19.7244C20.1419 16.7497 20.4812 16.4107 20.4812 15.9932V8.00684C20.4812 7.61538 20.1828 7.2929 19.8016 7.25391L19.7244 7.25H7.73711C7.32009 7.25008 6.98134 7.58852 6.98125 8.00684V10H5.48125V8.00684C5.48134 6.76139 6.49036 5.75008 7.73711 5.75H19.7244L19.9549 5.76172ZM14.3621 11.4883L14.9432 12.0352L14.3621 12.5811L10.9256 15.8135L9.89824 14.7217L11.9568 12.7852H1.70586V11.2852H11.9568L9.89824 9.34863L10.4119 8.80273L10.9256 8.25586L14.3621 11.4883Z" fill="currentColor"></path>
  </symbol>
  <symbol fill="none" xmlns="http://www.w3.org/2000/svg" viewBox="0 0 25 24" id="credit-card-money-transfer">
    <path d="M15.2634 5.75C16.5101 5.75008 17.5191 6.76139 17.5192 8.00684V10H16.0192V8.00684C16.0191 7.58852 15.6804 7.25008 15.2634 7.25H3.27606L3.19891 7.25391C2.81744 7.29268 2.51931 7.61522 2.51923 8.00684V15.9932C2.51931 16.4108 2.85841 16.7499 3.27606 16.75H15.2634C15.6804 16.7499 16.0191 16.4115 16.0192 15.9932V14H17.5192V15.9932C17.5191 17.2386 16.5101 18.2499 15.2634 18.25H3.27606C2.02998 18.2499 1.01931 17.2392 1.01923 15.9932V8.00684C1.01931 6.83856 1.90771 5.87729 3.04559 5.76172L3.27606 5.75H15.2634ZM23.9001 11.4883L24.4811 12.0352L23.9001 12.5811L20.4636 15.8135L19.4362 14.7217L21.4948 12.7852H11.2448V11.2852H21.4948L19.4362 9.34863L19.9499 8.80273L20.4636 8.25586L23.9001 11.4883Z" fill="currentColor"></path>
  </symbol>
  <symbol fill="none" xmlns="http://www.w3.org/2000/svg" viewBox="0 0 24 24" id="contactless-card">
    <path d="M20.9928 3.8999C22.1559 3.89999 23.0989 4.84329 23.0992 6.00635V17.9927C23.0991 19.1559 22.156 20.099 20.9928 20.0991H3.00546C1.84187 20.0988 0.900082 19.1553 0.899994 17.9927V6.00635C0.900293 4.84393 1.842 3.90019 3.00546 3.8999H20.9928ZM3.00546 5.09912C2.50578 5.09941 2.09951 5.50563 2.09921 6.00635V17.9927C2.0993 18.4936 2.50565 18.8996 3.00546 18.8999H20.9928C21.4933 18.8998 21.8999 18.4932 21.9 17.9927V6.00635C21.8997 5.50603 21.4931 5.09921 20.9928 5.09912H3.00546ZM13.8697 7.06787C14.1219 6.92565 14.4389 7.01339 14.5816 7.26416C15.3684 8.64753 15.8189 10.2508 15.8189 11.9546C15.8189 13.6594 15.3684 15.2612 14.5816 16.644C14.4384 16.8945 14.1219 16.982 13.8697 16.8403C13.62 16.6982 13.534 16.3787 13.6754 16.1274C14.3756 14.8968 14.7759 13.4751 14.776 11.9546C14.776 10.4346 14.3757 9.01181 13.6754 7.77979C13.534 7.53007 13.621 7.21196 13.8697 7.06787ZM11.9732 8.06104C12.2226 7.91545 12.5416 7.9992 12.6871 8.24756C13.3213 9.33615 13.6861 10.6054 13.6861 11.9546C13.6861 13.3042 13.3211 14.5724 12.6871 15.6606C12.5416 15.9088 12.222 15.9928 11.9713 15.8472C11.7243 15.7017 11.6389 15.3813 11.7848 15.1323C12.3315 14.1995 12.6412 13.1163 12.6412 11.9546C12.6412 10.7947 12.3321 9.7089 11.7857 8.77588C11.6409 8.52658 11.7246 8.2054 11.9732 8.06104ZM10.0611 9.04834C10.3064 8.8967 10.6288 8.97487 10.7789 9.21924C11.2689 10.0149 11.5523 10.9528 11.5523 11.9546C11.5523 12.9555 11.2689 13.8951 10.7789 14.689C10.6288 14.9332 10.3064 15.0096 10.0611 14.8599C9.81563 14.7086 9.7405 14.3877 9.8912 14.1421C10.2838 13.5052 10.5093 12.7578 10.5094 11.9546C10.5094 11.1506 10.2839 10.4041 9.8912 9.76709C9.7405 9.52216 9.81563 9.20045 10.0611 9.04834ZM8.21249 10.0112C8.44389 9.83828 8.77021 9.88702 8.94101 10.1187C9.13006 10.3752 9.2827 10.6615 9.38632 10.9712C9.4898 11.2797 9.54648 11.612 9.54648 11.9546C9.54645 12.297 9.48927 12.6299 9.38437 12.938C9.28213 13.2469 9.13008 13.5348 8.94101 13.7905C8.76784 14.0209 8.44178 14.0698 8.21152 13.8989C7.98001 13.7278 7.93041 13.4011 8.10312 13.1694C8.22745 12.9984 8.32961 12.8084 8.39609 12.605C8.46535 12.401 8.50348 12.1831 8.50351 11.9546C8.50351 11.725 8.46538 11.5077 8.39609 11.3032C8.32961 11.0993 8.22827 10.9109 8.10312 10.7407C7.93034 10.5085 7.98054 10.1822 8.21249 10.0112Z" fill="currentColor"></path>
  </symbol>
  <symbol fill="none" xmlns="http://www.w3.org/2000/svg" viewBox="0 0 24 24" id="direct-debit">
    <path d="M12.6387 9.62012L10.7559 9.58203C6.72026 9.72123 2.0471 11.478 2.0459 13.8408C2.04637 16.4411 6.4814 19.5706 11.8066 19.5742C16.1134 19.5778 19.6336 16.4536 19.6348 11.7568C19.637 6.7315 16.6172 4.55336 13.1865 3.78418V3.52539C19.4289 3.85179 24.0012 7.64992 24 11.9951C23.9974 16.9556 18.6169 20.4929 11.9824 20.4883C5.34762 20.4835 -0.0024 16.6743 0 11.9775C0.00149526 7.05062 4.67538 3.49405 12.6406 3.5L12.6387 9.62012ZM12.5996 18.8701C10.3138 18.7057 7.37536 17.1812 7.375 14.5547C7.3762 11.9543 9.88072 10.0707 12.6035 9.96875L12.5996 18.8701Z" fill="currentColor"></path>
  </symbol>
  <symbol fill="none" xmlns="http://www.w3.org/2000/svg" viewBox="0 0 24 24" id="documents">
    <path d="M19.85 23.6499H1.34998V3.1499H19.85V23.6499ZM2.84998 22.1499H18.35V4.6499H2.84998V22.1499ZM22.6498 20.8501H20.6V19.3501H21.1498V1.8501H5.64978V2.3999H4.14978V0.350098H22.6498V20.8501ZM6.09998 17.6499C6.79013 17.6499 7.34988 18.2098 7.34998 18.8999C7.34998 19.5901 6.79019 20.1499 6.09998 20.1499C5.40976 20.1499 4.84998 19.5901 4.84998 18.8999C4.85007 18.2098 5.40982 17.6499 6.09998 17.6499ZM16.6 19.6499H9.59998V18.1499H16.6V19.6499ZM6.09998 18.6499C5.96182 18.6499 5.85007 18.7618 5.84998 18.8999C5.84998 19.0381 5.96176 19.1499 6.09998 19.1499C6.23819 19.1499 6.34998 19.0381 6.34998 18.8999C6.34988 18.7618 6.23813 18.6499 6.09998 18.6499ZM6.09998 12.1499C6.79013 12.1499 7.34988 12.7098 7.34998 13.3999C7.34998 14.0901 6.79019 14.6499 6.09998 14.6499C5.40976 14.6499 4.84998 14.0901 4.84998 13.3999C4.85007 12.7098 5.40982 12.1499 6.09998 12.1499ZM16.6 14.1499H9.59998V12.6499H16.6V14.1499ZM6.09998 13.1499C5.96182 13.1499 5.85007 13.2618 5.84998 13.3999C5.84998 13.5381 5.96176 13.6499 6.09998 13.6499C6.23819 13.6499 6.34998 13.5381 6.34998 13.3999C6.34988 13.2618 6.23813 13.1499 6.09998 13.1499ZM6.09998 6.6499C6.79013 6.6499 7.34988 7.20977 7.34998 7.8999C7.34998 8.59012 6.79019 9.1499 6.09998 9.1499C5.40976 9.1499 4.84998 8.59012 4.84998 7.8999C4.85007 7.20977 5.40982 6.6499 6.09998 6.6499ZM16.6 8.6499H9.59998V7.1499H16.6V8.6499ZM6.09998 7.6499C5.96182 7.6499 5.85007 7.76177 5.84998 7.8999C5.84998 8.03812 5.96176 8.1499 6.09998 8.1499C6.23819 8.1499 6.34998 8.03812 6.34998 7.8999C6.34988 7.76177 6.23813 7.6499 6.09998 7.6499Z" fill="currentColor"></path>
  </symbol>
  <symbol fill="none" xmlns="http://www.w3.org/2000/svg" viewBox="0 0 24 24" id="eco-friendly">
    <path d="M19.5383 2.16699C19.8565 4.36188 20.2565 7.32248 20.1545 10.1943C20.0563 12.9581 19.4911 15.7603 17.8234 17.7129L17.6584 17.8994C16.0748 19.6263 13.9113 20.9061 11.7365 21.3633C9.67149 21.7973 7.53843 21.4928 5.92696 20.041C5.33806 21.1228 5.00028 22.2751 5.00021 23.5H3.80099C3.80107 21.901 4.28438 20.4422 5.0715 19.1211C4.31702 18.1551 3.91405 17.1369 3.82052 16.1045C3.70595 14.838 4.06214 13.6087 4.70138 12.4922C5.97107 10.2746 8.40945 8.40818 10.9113 7.34961L11.7268 6.99609C15.648 5.24738 17.3328 3.77261 18.4299 1.94434L19.2971 0.5L19.5383 2.16699ZM18.5568 3.83203C17.281 5.36464 15.4062 6.66878 12.2151 8.0918L11.3791 8.45508C9.04545 9.44246 6.84688 11.1591 5.74239 13.0879C5.19467 14.0446 4.92831 15.0304 5.01583 15.9971C5.07693 16.6708 5.31355 17.3648 5.78439 18.0615C6.33911 17.3283 6.9834 16.6434 7.68087 16.0059C9.89187 13.985 12.7131 12.3747 15.1809 11.1582L15.4455 11.6963L15.7111 12.2344C13.2786 13.4335 10.5768 14.9847 8.49044 16.8916C7.75767 17.5614 7.11092 18.2675 6.57833 19.0088L6.75997 19.1807C8.0132 20.2866 9.70545 20.5643 11.4895 20.1895C13.3984 19.7881 15.3447 18.6462 16.7736 17.0879L17.0442 16.7715C18.3441 15.1361 18.863 12.7494 18.9553 10.1514C19.0321 7.9877 18.8095 5.75534 18.5568 3.83203Z" fill="currentColor"></path>
  </symbol>
  <symbol fill="none" xmlns="http://www.w3.org/2000/svg" viewBox="0 0 24 24" id="globe">
    <path d="M12.1217 1.90283C12.1364 1.90336 12.151 1.90308 12.1656 1.90381C17.6675 1.99226 22.099 6.47664 22.0992 11.9995C22.0992 17.518 17.6749 21.9986 12.1793 22.0942C12.1199 22.0974 12.0598 22.1001 11.9996 22.1001C11.9397 22.1001 11.8801 22.0974 11.8209 22.0942C6.32523 21.9987 1.90002 17.518 1.90002 11.9995C1.90023 6.47691 6.33216 1.99267 11.8336 1.90381C11.8476 1.90311 11.8616 1.90335 11.8756 1.90283C11.9169 1.90233 11.9582 1.8999 11.9996 1.8999C12.0403 1.8999 12.0812 1.90235 12.1217 1.90283ZM11.4 16.6108C10.3268 16.6472 9.30913 16.7795 8.37756 16.9907C8.55808 17.5162 8.76477 18.002 8.99475 18.439C9.69574 19.7707 10.5461 20.5591 11.4 20.811V16.6108ZM12.5992 20.811C13.4533 20.5593 14.3034 19.7708 15.0045 18.439C15.2345 18.0019 15.4402 17.5154 15.6207 16.9897C14.6895 16.7787 13.672 16.6472 12.5992 16.6108V20.811ZM7.21936 17.3071C6.61254 17.5033 6.0558 17.7343 5.56116 17.9946C5.53016 18.0109 5.49977 18.028 5.46936 18.0444C6.3773 19.0249 7.50318 19.7987 8.77014 20.2925C8.46166 19.9037 8.18076 19.4678 7.93323 18.9976C7.66257 18.4833 7.4245 17.9159 7.21936 17.3071ZM16.7799 17.3071C16.5748 17.9158 16.3367 18.4834 16.066 18.9976C15.8185 19.4679 15.5377 19.9037 15.2291 20.2925C16.4958 19.7989 17.6211 19.0254 18.5289 18.0454C18.4988 18.0291 18.4688 18.0108 18.4381 17.9946C17.9434 17.7343 17.3868 17.5033 16.7799 17.3071ZM3.11389 12.4995C3.20828 14.2053 3.78463 15.7815 4.70667 17.0981C4.80403 17.0423 4.902 16.986 5.00256 16.9331C5.57057 16.6342 6.20227 16.3723 6.8844 16.1538C6.60794 15.0272 6.441 13.793 6.40686 12.4995H3.11389ZM17.5934 12.4995C17.5592 13.7931 17.3913 15.0272 17.1149 16.1538C17.7971 16.3723 18.4286 16.6342 18.9967 16.9331C19.0971 16.986 19.1954 17.0424 19.2926 17.0981C20.2148 15.7815 20.792 14.2055 20.8864 12.4995H17.5934ZM7.60706 12.4995C7.6407 13.6931 7.79419 14.8196 8.04163 15.8374C9.08542 15.5957 10.2173 15.4482 11.4 15.4106V12.4995H7.60706ZM12.5992 15.4106C13.7816 15.4481 14.9131 15.5959 15.9567 15.8374C16.2042 14.8195 16.3595 13.6933 16.3932 12.4995H12.5992V15.4106ZM4.70667 6.90088C3.8206 8.16593 3.25623 9.67105 3.12952 11.3003H6.41467C6.45995 10.0793 6.62211 8.9138 6.8844 7.84521C6.20236 7.62676 5.5705 7.36483 5.00256 7.06592C4.902 7.01298 4.80404 6.95671 4.70667 6.90088ZM8.04163 8.16162C7.80794 9.12255 7.65924 10.1805 7.61487 11.3003H11.4V8.58838C10.2172 8.55083 9.08546 8.40332 8.04163 8.16162ZM15.9567 8.16162C14.9131 8.40315 13.7817 8.55088 12.5992 8.58838V11.3003H16.3854C16.341 10.1803 16.1904 9.12266 15.9567 8.16162ZM18.9967 7.06592C18.4286 7.3649 17.7971 7.62673 17.1149 7.84521C17.3772 8.91385 17.5403 10.0792 17.5856 11.3003H20.8707C20.744 9.67089 20.1788 8.16601 19.2926 6.90088C19.1953 6.95668 19.0972 7.013 18.9967 7.06592ZM11.4 3.18799C10.546 3.4399 9.69584 4.23003 8.99475 5.56201C8.76501 5.9986 8.55794 6.48333 8.37756 7.0083C9.30917 7.21953 10.3268 7.35178 11.4 7.38818V3.18799ZM12.5992 7.38818C13.6721 7.35184 14.6894 7.22031 15.6207 7.00928C15.4403 6.48405 15.2344 5.99877 15.0045 5.56201C14.3032 4.22968 13.4535 3.43968 12.5992 3.18799V7.38818ZM8.77112 3.70557C7.50398 4.1992 6.37749 4.97319 5.46936 5.95361C5.49991 5.97017 5.53002 5.988 5.56116 6.00439C6.05573 6.2647 6.61263 6.49575 7.21936 6.69189C7.42436 6.08363 7.66281 5.51728 7.93323 5.00342C8.18115 4.53239 8.46206 4.09481 8.77112 3.70557ZM15.2281 3.70557C15.5373 4.09489 15.818 4.53224 16.066 5.00342C16.3365 5.5173 16.5749 6.0836 16.7799 6.69189C17.3868 6.49572 17.9434 6.26477 18.4381 6.00439C18.469 5.98816 18.4987 5.97001 18.5289 5.95361C17.6208 4.97343 16.4952 4.19904 15.2281 3.70557Z" fill="currentColor"></path>
  </symbol>
  <symbol fill="none" xmlns="http://www.w3.org/2000/svg" viewBox="0 0 24 24" id="gift-card">
    <path d="M20.993 3.8999C22.1561 3.89999 23.0991 4.84329 23.0994 6.00635V17.9927C23.0993 19.1559 22.1562 20.099 20.993 20.0991H3.00568C1.84209 20.0988 0.900296 19.1553 0.900208 17.9927V6.00635C0.900507 4.84393 1.84222 3.90019 3.00568 3.8999H20.993ZM2.09943 17.9927C2.09951 18.4936 2.50586 18.8996 3.00568 18.8999H8.40021V13.4985C7.61663 14.1233 6.57662 14.5798 5.33087 14.6216H5.32208L5.15021 14.6245L5.12677 13.4253L5.28986 13.4214L5.5379 13.4067C6.36841 13.3304 7.0667 13.0164 7.60724 12.5991H2.09943V17.9927ZM10.3895 12.5991C10.93 13.0164 11.6283 13.3304 12.4588 13.4067L12.7068 13.4214L12.8699 13.4253L12.8465 14.6245L12.6746 14.6216H12.6658C11.4218 14.5799 10.3827 14.1249 9.59943 13.5015V18.8999H20.993C21.4935 18.8998 21.9001 18.4932 21.9002 17.9927V12.5991H10.3895ZM9.59943 9.39014C9.66312 9.24457 9.72086 9.11192 9.76935 8.99756C9.82393 8.86882 9.8674 8.76336 9.89728 8.69092C9.91214 8.65488 9.92378 8.62675 9.93146 8.60791C9.93525 8.59861 9.93834 8.59112 9.94025 8.58643C9.94108 8.58436 9.94177 8.58261 9.9422 8.58154L9.94318 8.58057L9.94415 8.57764L10.0145 8.42334C10.3966 7.67419 11.2126 7.23387 12.0623 7.34619L12.0613 7.34717C12.9635 7.46542 13.6769 8.17636 13.7899 9.08154L13.8045 9.24658C13.8234 9.62716 13.7369 9.98603 13.5418 10.3081C13.3253 10.6654 12.998 10.9399 12.6229 11.1567L12.619 11.1587L12.1951 11.3999H21.9002V6.00635C21.8999 5.50603 21.4933 5.09921 20.993 5.09912H9.59943V9.39014ZM3.00568 5.09912C2.50599 5.09941 2.09973 5.50563 2.09943 6.00635V11.3999H5.80157L5.37775 11.1587L5.37384 11.1567C4.9987 10.94 4.67141 10.6653 4.4549 10.3081C4.25977 9.98602 4.17327 9.62717 4.1922 9.24658L4.20685 9.08154C4.31986 8.17624 5.03304 7.46528 5.93536 7.34717L5.93439 7.34619C6.7841 7.23387 7.60012 7.67419 7.98224 8.42334L8.05255 8.57764L8.05353 8.58057L8.0545 8.58154C8.05493 8.5826 8.05565 8.58444 8.05646 8.58643C8.05836 8.59112 8.06149 8.5987 8.06525 8.60791C8.07293 8.62675 8.0846 8.65496 8.09943 8.69092C8.1293 8.76336 8.17281 8.8689 8.22736 8.99756C8.2766 9.1137 8.33532 9.24874 8.40021 9.39697V5.09912H3.00568ZM6.09161 8.53662H6.09064C5.72698 8.58424 5.44294 8.87054 5.39825 9.23096L5.39728 9.23291C5.37292 9.42528 5.40831 9.56557 5.48126 9.68604C5.561 9.81752 5.71103 9.96547 5.97443 10.1177L7.92853 11.229C7.80271 10.976 7.68116 10.7231 7.57306 10.4878C7.3928 10.0955 7.23444 9.73176 7.12189 9.46631C7.06569 9.33377 7.02123 9.22454 6.99005 9.14893C6.97456 9.11136 6.96219 9.08134 6.95392 9.06104C6.94986 9.05107 6.94634 9.04296 6.94415 9.0376L6.94122 9.03174C6.80221 8.69137 6.45379 8.48868 6.09161 8.53662ZM11.9051 8.53662C11.5429 8.48868 11.1945 8.69137 11.0555 9.03174L11.0526 9.0376C11.0504 9.04297 11.0469 9.05099 11.0428 9.06104C11.0345 9.08134 11.0222 9.11128 11.0067 9.14893C10.9755 9.22455 10.931 9.33369 10.8748 9.46631C10.7623 9.73178 10.6039 10.0954 10.4236 10.4878C10.3155 10.7231 10.194 10.976 10.0682 11.229L12.0223 10.1177C12.2857 9.96543 12.4357 9.81754 12.5154 9.68604C12.5884 9.56558 12.6238 9.42525 12.5994 9.23291L12.5984 9.23096C12.5538 8.87067 12.2695 8.58439 11.9061 8.53662H11.9051Z" fill="currentColor"></path>
  </symbol>
  <symbol fill="none" xmlns="http://www.w3.org/2000/svg" viewBox="0 0 24 24" id="filter-sort">
    <path d="M15 18.5991H9V17.3999H15V18.5991ZM18 12.5991H6V11.3999H18V12.5991ZM21 6.59912H3V5.3999H21V6.59912Z" fill="currentColor"></path>
  </symbol>
  <symbol fill="none" xmlns="http://www.w3.org/2000/svg" viewBox="0 0 24 24" id="house">
    <path d="M11.4768 1.6438L14.0383 3.75024H22.7502V22.2502H2.25024V10.3098L0.973877 11.3489L0.0266113 10.1848L10.5266 1.64087L11.0032 1.25415L11.4768 1.6438ZM3.75024 9.08911V20.7502H14.2502V16.2502H18.7502V20.7502H21.2502V11.6233L10.9973 3.19165L3.75024 9.08911ZM15.7502 20.7502H17.2502V17.7502H15.7502V20.7502ZM11.7502 15.2502H6.25024V10.2502H11.7502V15.2502ZM7.75024 13.7502H10.2502V11.7502H7.75024V13.7502ZM21.2502 9.68188V5.25024H15.8616L21.2502 9.68188Z" fill="currentColor"></path>
  </symbol>
  <symbol fill="none" xmlns="http://www.w3.org/2000/svg" viewBox="0 0 24 24" id="interest">
    <path d="M19.7002 3.15649L5.48535 21.7444L4.88965 21.2893L4.29395 20.8333L18.5088 2.24438L19.7002 3.15649ZM17 13.2502C19.0711 13.2502 20.75 14.9292 20.75 17.0002C20.7498 19.0712 19.071 20.7502 17 20.7502C14.929 20.7502 13.2502 19.0712 13.25 17.0002C13.25 14.9292 14.9289 13.2502 17 13.2502ZM17 14.7502C15.7574 14.7502 14.75 15.7576 14.75 17.0002C14.7502 18.2428 15.7575 19.2502 17 19.2502C18.2425 19.2502 19.2498 18.2428 19.25 17.0002C19.25 15.7576 18.2426 14.7502 17 14.7502ZM7 3.25024C9.07107 3.25024 10.75 4.92918 10.75 7.00024C10.7498 9.07118 9.07097 10.7502 7 10.7502C4.92903 10.7502 3.25015 9.07118 3.25 7.00024C3.25 4.92918 4.92893 3.25024 7 3.25024ZM7 4.75024C5.75736 4.75024 4.75 5.7576 4.75 7.00024C4.75015 8.24275 5.75745 9.25024 7 9.25024C8.24255 9.25024 9.24985 8.24275 9.25 7.00024C9.25 5.7576 8.24264 4.75024 7 4.75024Z" fill="currentColor"></path>
  </symbol>
  <symbol fill="none" xmlns="http://www.w3.org/2000/svg" viewBox="0 0 24 24" id="lost-or-stolen-card">
    <path d="M20.9928 3.8999C22.1559 3.89999 23.0989 4.84329 23.0992 6.00635V17.9927C23.0991 19.1559 22.156 20.099 20.9928 20.0991H3.00546C1.84187 20.0988 0.900082 19.1553 0.899994 17.9927V6.00635C0.900293 4.84393 1.842 3.90019 3.00546 3.8999H20.9928ZM3.00546 5.09912C2.50578 5.09941 2.09951 5.50563 2.09921 6.00635V17.9927C2.0993 18.4936 2.50565 18.8996 3.00546 18.8999H20.9928C21.4933 18.8998 21.8999 18.4932 21.9 17.9927V6.00635C21.8997 5.50603 21.4931 5.09921 20.9928 5.09912H3.00546ZM12.1119 14.4048C12.6669 14.461 13.099 14.9304 13.0992 15.4995C13.0992 16.1066 12.6076 16.5991 11.9996 16.5991C11.4298 16.5989 10.9611 16.1661 10.9049 15.6118L10.9 15.4995L10.9049 15.3872C10.9612 14.833 11.4299 14.4001 11.9996 14.3999L12.1119 14.4048ZM11.9996 15.3999C11.9446 15.4001 11.9002 15.4447 11.9 15.4995L11.9078 15.5386C11.923 15.5742 11.9584 15.599 11.9996 15.5991C12.041 15.5991 12.0762 15.5743 12.0914 15.5386L12.0992 15.4995L12.0914 15.4604C12.0812 15.437 12.0622 15.4178 12.0387 15.4077L11.9996 15.3999ZM12.5992 12.9995H11.4V6.99951H12.5992V12.9995Z" fill="currentColor"></path>
  </symbol>
  <symbol fill="none" xmlns="http://www.w3.org/2000/svg" viewBox="0 0 24 25" id="insurance-cover">
    <path d="M12 0.25C18.2132 0.25 23.25 5.28679 23.25 11.5V12.25H12.75V21.5C12.75 23.0182 11.5182 24.25 10 24.25C8.48179 24.25 7.25 23.0182 7.25 21.5H8.75C8.75 22.1898 9.31022 22.75 10 22.75C10.6466 22.75 11.179 22.2577 11.2432 21.6279L11.25 21.5V12.25H0.75V11.5C0.75 5.28679 5.78679 0.25 12 0.25ZM14.748 2.14355C15.0764 2.61521 15.3848 3.15946 15.6631 3.75977C16.5141 5.5959 17.1357 8.04402 17.2344 10.75H21.7178C21.4059 6.65199 18.563 3.2627 14.748 2.14355ZM12 1.75C11.8085 1.75 11.4661 1.87657 11.0117 2.34668C10.5735 2.80019 10.1143 3.49076 9.69727 4.39062C8.94003 6.02441 8.36463 8.25493 8.2666 10.75H15.7334C15.6354 8.25493 15.06 6.02441 14.3027 4.39062C13.8857 3.49076 13.4265 2.80019 12.9883 2.34668C12.5339 1.87657 12.1915 1.75 12 1.75ZM9.25098 2.14355C5.43645 3.26296 2.59406 6.65231 2.28223 10.75H6.76562C6.86431 8.04402 7.48589 5.5959 8.33691 3.75977C8.61508 3.15966 8.92272 2.61511 9.25098 2.14355Z" fill="currentColor"></path>
  </symbol>
  <symbol fill="none" xmlns="http://www.w3.org/2000/svg" viewBox="0 0 24 24" id="laptop">
    <path d="M24 19.5991H0V18.3999H24V19.5991ZM21.5996 17.5991H2.40039V4.3999H21.5996V17.5991ZM3.59961 16.3999H20.4004V5.59912H3.59961V16.3999Z" fill="currentColor"></path>
  </symbol>
  <symbol fill="none" xmlns="http://www.w3.org/2000/svg" viewBox="0 0 24 24" id="money">
    <path d="M11.9996 0.899902C18.1298 0.899902 23.099 5.86932 23.0992 11.9995C23.0992 18.1299 18.13 23.0991 11.9996 23.0991C5.86941 23.0989 0.899994 18.1298 0.899994 11.9995C0.900205 5.86945 5.86954 0.900113 11.9996 0.899902ZM11.9996 2.09912C6.53228 2.09933 2.09942 6.53219 2.09921 11.9995C2.09921 17.467 6.53215 21.8997 11.9996 21.8999C17.4672 21.8999 21.9 17.4671 21.9 11.9995C21.8998 6.53206 17.4671 2.09912 11.9996 2.09912ZM12.2008 5.1499C13.1587 5.15003 13.982 5.38825 14.6461 5.8501C15.3097 6.31173 15.7752 6.96875 16.0631 7.73975L14.9381 8.15967C14.721 7.57818 14.3928 7.13452 13.9615 6.83447C13.5307 6.53481 12.956 6.34925 12.2008 6.34912C11.0049 6.34912 10.1004 7.52179 10.1002 8.99951C10.1002 9.67374 10.2851 10.2288 10.5182 10.8511H13.5367V12.0513H10.9361C11.0597 12.4856 11.1509 12.9629 11.151 13.4995C11.151 14.3601 10.8682 15.2685 10.4615 16.0669C10.4349 16.1191 10.4054 16.1705 10.3775 16.2222C11.0059 16.0817 11.4894 16.1374 11.9234 16.3384C12.1075 16.4236 12.2642 16.5272 12.3922 16.6147C12.5304 16.7094 12.6263 16.7792 12.7389 16.8462C12.9321 16.9611 13.1466 17.0493 13.4957 17.0493L13.7154 17.0425C14.1942 17.009 14.453 16.864 14.6412 16.6909C14.9039 16.4491 15.0753 16.1238 15.3873 15.6089L15.901 15.9194L16.4137 16.23C16.1632 16.6434 15.8784 17.1839 15.4537 17.5747C15.0401 17.955 14.5179 18.1868 13.8102 18.2388L13.4957 18.2495C12.8926 18.2495 12.4682 18.0819 12.1246 17.8774C11.9688 17.7847 11.8207 17.6778 11.7144 17.605C11.5981 17.5253 11.5081 17.4688 11.4185 17.4272C11.1542 17.305 10.6184 17.1721 8.79355 18.1929L8.10995 17.2134L8.28476 17.0542C8.69083 16.6613 9.0867 16.1216 9.39218 15.522C9.74249 14.8341 9.95077 14.1149 9.95078 13.4995C9.95072 12.9736 9.8385 12.5199 9.67929 12.0513H8.33066V10.8511H9.24179C9.05771 10.3124 8.90097 9.70719 8.90097 8.99951C8.90114 7.16724 10.0712 5.1499 12.2008 5.1499Z" fill="currentColor"></path>
  </symbol>
  <symbol fill="none" xmlns="http://www.w3.org/2000/svg" viewBox="0 0 24 24" id="money-simple">
    <path d="M12.3027 3.32935C13.5415 3.3294 14.594 3.63635 15.4375 4.2229C16.2805 4.80936 16.8756 5.64727 17.2461 6.63989L16.6836 6.84985L16.1221 7.05981C15.8223 6.25672 15.3635 5.63313 14.7529 5.20825C14.1426 4.78373 13.339 4.52861 12.3027 4.52856C10.5622 4.52864 9.3185 6.22342 9.31836 8.24341C9.31845 9.22254 9.60069 10.0189 9.93262 10.8977H14.0771V12.0979H10.3623C10.5604 12.7294 10.7119 13.424 10.7119 14.218C10.7118 15.3204 10.35 16.4945 9.81934 17.5364C9.71405 17.743 9.59791 17.9453 9.47852 18.1438C10.5137 17.8224 11.2301 17.8785 11.8516 18.1663C12.0806 18.2723 12.2782 18.4018 12.4463 18.5168C12.6242 18.6386 12.7598 18.7363 12.916 18.8293C13.1973 18.9967 13.5171 19.1282 14.0225 19.1282L14.3291 19.1174C15.0028 19.07 15.3898 18.8637 15.6768 18.5999C16.0523 18.2544 16.2979 17.7876 16.7021 17.1204L17.2148 17.4309L17.7285 17.7415C17.3858 18.3072 17.0268 18.9892 16.4893 19.4836C15.9771 19.9547 15.3269 20.2478 14.4248 20.3137L14.0225 20.3274C13.2633 20.3274 12.7344 20.1174 12.3027 19.8606C12.103 19.7417 11.9149 19.6063 11.7686 19.5061C11.6122 19.3991 11.482 19.3174 11.3477 19.2551C10.9317 19.0625 10.2135 18.9343 8.12109 20.0403L7.68359 20.2776L7 19.2981C7.64136 18.7487 8.27666 17.9215 8.75 16.9924C9.22443 16.0611 9.51259 15.0753 9.5127 14.218C9.51269 13.4399 9.33534 12.7769 9.09668 12.0979H7.16504V10.8977H8.65332C8.37365 10.1251 8.11824 9.26764 8.11816 8.24341C8.11831 5.86889 9.62841 3.32942 12.3027 3.32935Z" fill="currentColor"></path>
  </symbol>
  <symbol fill="none" xmlns="http://www.w3.org/2000/svg" viewBox="0 0 24 26" id="paperless">
    <path d="M21.75 20.4229L20.8779 20.2793L16.5098 19.5586L12.0322 24.0674L10.75 25.3584V18.6104L1.87793 17.1484L0.192383 16.8711L1.53809 15.8184L20.5381 0.948242L21.75 0V20.4229ZM12.25 21.7188L14.6924 19.2588L12.25 18.8574V21.7188ZM12.6924 17.4092L16.3721 18.0166L20.25 18.6543V4.33496L12.6924 17.4092ZM3.80664 15.9463L11.1104 17.1484L18.4121 4.51562L3.80664 15.9463Z" fill="currentColor"></path>
  </symbol>
  <symbol fill="none" xmlns="http://www.w3.org/2000/svg" viewBox="0 0 25 24" id="limits">
    <path d="M6.28027 16.6895L10 12.9697L11.0605 14.0303L5.53027 19.5605L0 14.0303L1.06055 12.9697L4.78027 16.6895V5.5H6.28027V16.6895ZM24.0605 9.96973L23 11.0303L19.2803 7.31055V18.5H17.7803V7.31055L14.0605 11.0303L13 9.96973L18.5303 4.43945L24.0605 9.96973Z" fill="currentColor"></path>
  </symbol>
  <symbol fill="none" xmlns="http://www.w3.org/2000/svg" viewBox="0 0 24 24" id="protected-money">
    <path d="M12.4692 1.91455C15.4028 4.26136 17.281 5.28317 20.6069 5.7583L21.2505 5.8501V13.0005C21.2504 15.1779 20.5624 16.8447 19.4565 18.1997C18.5063 19.3639 17.2631 20.2792 15.9536 21.0981L15.3882 21.4438L15.3804 21.4487L15.3716 21.4526L12.3696 23.1528L12.0005 23.3628L11.6313 23.1528L8.62842 21.4536L8.61963 21.4487L8.61182 21.4438C7.09952 20.5356 5.6303 19.5302 4.54443 18.1997C3.43872 16.8447 2.75059 15.1779 2.75049 13.0005V5.85107L3.39404 5.7583C6.69723 5.28311 8.59938 4.26041 11.5317 1.91455L12.0005 1.53955L12.4692 1.91455ZM11.9995 3.45557C9.35443 5.51902 7.33758 6.60122 4.25049 7.13916V13.0005C4.25058 14.8226 4.81316 16.1567 5.70654 17.2515C6.61805 18.3683 7.89398 19.2631 9.37451 20.1528L11.9995 21.6382L14.6245 20.1528C16.1059 19.263 17.3827 18.3685 18.2944 17.2515C19.1879 16.1567 19.7504 14.8226 19.7505 13.0005V7.14111C16.6434 6.6032 14.6432 5.51967 11.9995 3.45557ZM11.8052 7.64111C12.5142 7.64118 13.1457 7.81801 13.6636 8.17822C14.1807 8.53808 14.5347 9.04655 14.7505 9.62451L14.0483 9.88623L13.3452 10.1489C13.2179 9.80792 13.0338 9.56756 12.8071 9.40967C12.5808 9.25223 12.2608 9.14118 11.8052 9.14111C11.2587 9.14133 10.7202 9.69685 10.7202 10.6001C10.7203 10.922 10.791 11.199 10.9019 11.5171H12.7134V13.0171H11.3755C11.4106 13.2171 11.4341 13.4308 11.4341 13.6587C11.434 14.1524 11.3114 14.6551 11.1265 15.1187C11.35 15.1325 11.559 15.1847 11.7603 15.2778C11.9122 15.3482 12.0382 15.4319 12.1284 15.4937C12.2313 15.5641 12.2821 15.601 12.3462 15.6392C12.4344 15.6916 12.5207 15.7289 12.6851 15.729C13.0373 15.7289 13.16 15.6426 13.2329 15.5757C13.3652 15.4538 13.4489 15.2931 13.6782 14.9146L14.9614 15.6919C14.8088 15.9439 14.5832 16.3722 14.2485 16.6802C13.8539 17.043 13.3478 17.2289 12.6851 17.229C12.2032 17.2289 11.8549 17.0926 11.5786 16.9282C11.4607 16.8581 11.345 16.7753 11.2817 16.7319C11.2062 16.6802 11.1643 16.6549 11.1304 16.6392C11.1127 16.631 10.8843 16.4603 9.65674 17.147L8.80225 15.9233C9.07928 15.686 9.37165 15.3105 9.59229 14.8774C9.81413 14.4418 9.93397 14.0069 9.93408 13.6587C9.93408 13.4325 9.89817 13.2284 9.83936 13.0171H9.17432V11.5171H9.33643C9.26844 11.2411 9.22026 10.9361 9.22021 10.6001C9.22021 9.25367 10.0916 7.64131 11.8052 7.64111Z" fill="currentColor"></path>
  </symbol>
  <symbol fill="none" xmlns="http://www.w3.org/2000/svg" viewBox="0 0 24 24" id="pet">
    <path d="M12.3207 9.26318C15.4727 9.40824 18.32 11.6797 19.519 14.4653L19.6332 14.7456V14.7476L19.7231 14.9985C20.1403 16.274 20.1397 17.8438 19.6459 19.1499C19.1053 20.5798 17.9222 21.7788 16.0151 21.7788C14.9708 21.7787 14.1628 21.2031 13.5795 20.8042C13.0067 20.4124 12.6098 20.1599 12.187 20.103L12.0034 20.0903C11.5029 20.0905 11.0803 20.3562 10.4282 20.8032C9.84456 21.2032 9.03782 21.7788 7.98675 21.7788C6.07971 21.7787 4.8965 20.5798 4.3559 19.1499C3.82923 17.7567 3.86451 16.0635 4.36859 14.7476L4.36957 14.7456L4.48383 14.4644C5.72567 11.5792 8.72495 9.25503 12.0043 9.25635L12.3207 9.26318ZM11.7534 10.7622C9.16733 10.8812 6.71222 12.8421 5.76898 15.2856L5.768 15.2847C5.39148 16.2684 5.36681 17.5817 5.75922 18.6196C6.13792 19.6213 6.85454 20.2787 7.98675 20.2788C8.50088 20.2788 8.93253 20.01 9.58051 19.5659C10.1596 19.169 10.9625 18.5905 12.0034 18.5903L12.1957 18.5972C13.1405 18.6623 13.8827 19.1942 14.4262 19.5659C15.0769 20.0109 15.508 20.2787 16.0151 20.2788C17.1473 20.2788 17.8639 19.6212 18.2426 18.6196C18.6352 17.5813 18.6098 16.2676 18.2328 15.2837V15.2827C17.2611 12.7687 14.6761 10.7575 12.0034 10.7563L11.7534 10.7622ZM20.7075 5.46143C21.0893 5.35983 21.5232 5.34387 21.9428 5.51514C22.3172 5.66799 22.6137 5.94282 22.8295 6.30127L22.9174 6.45947L22.9184 6.46338L23.0073 6.6665C23.1862 7.14826 23.1788 7.66931 23.0825 8.13721C22.9709 8.67856 22.7277 9.21485 22.4057 9.67432C21.843 10.4773 20.8231 11.3054 19.6401 11.0786L19.4008 11.019C18.9119 10.8677 18.5064 10.6092 18.2299 10.2329C17.953 9.85591 17.8518 9.42395 17.8598 9.01025C17.8752 8.21613 18.2882 7.41953 18.7817 6.81592C19.2767 6.21047 19.9677 5.65836 20.7075 5.46143ZM2.05707 5.51514C2.47665 5.34389 2.91062 5.35981 3.29242 5.46143C4.03213 5.65838 4.72319 6.21047 5.2182 6.81592C5.71165 7.41953 6.12469 8.21614 6.14008 9.01025C6.14808 9.42394 6.04689 9.85591 5.76996 10.2329C5.52793 10.5624 5.1869 10.8015 4.77777 10.9575L4.59906 11.019C3.31522 11.4165 2.1945 10.5308 1.59418 9.67432C1.27216 9.21484 1.02896 8.67856 0.917419 8.13721C0.807308 7.60259 0.81427 6.999 1.08148 6.46338L1.08246 6.45947L1.17035 6.30127C1.3862 5.94282 1.68271 5.66798 2.05707 5.51514ZM21.3754 6.90381C21.3323 6.88632 21.2462 6.86994 21.0932 6.91064C20.7626 6.99869 20.3198 7.30402 19.9428 7.76514C19.5641 8.2284 19.3662 8.70897 19.3598 9.03955C19.357 9.18779 19.392 9.28026 19.4389 9.34424C19.4864 9.40886 19.5931 9.50863 19.8442 9.58643L19.9077 9.60205C20.2356 9.66163 20.7288 9.45357 21.1772 8.81396C21.3944 8.50399 21.5478 8.15469 21.6137 7.83447C21.6811 7.50749 21.6465 7.27241 21.5766 7.13232H21.5756C21.4884 6.96129 21.4099 6.91789 21.3754 6.90381ZM2.90668 6.91064C2.7537 6.86993 2.66756 6.88633 2.62445 6.90381C2.59 6.91787 2.51065 6.96088 2.42328 7.13232L2.37836 7.25537C2.34226 7.39578 2.33564 7.58916 2.38617 7.83447C2.45213 8.1547 2.60544 8.50399 2.82269 8.81396C3.30095 9.49611 3.83035 9.68714 4.1557 9.58643L4.31781 9.5249C4.4562 9.46114 4.52534 9.39275 4.56097 9.34424C4.60784 9.28026 4.64291 9.18777 4.64008 9.03955C4.63368 8.70898 4.43578 8.22839 4.05707 7.76514C3.68005 7.30403 3.23728 6.99871 2.90668 6.91064ZM8.49554 1.8501C8.9482 1.85011 9.34365 2.02824 9.65863 2.26611C10.2691 2.72731 10.702 3.49851 10.9321 4.24561C11.1614 4.99028 11.2424 5.88336 10.9575 6.62451C10.809 7.01053 10.5528 7.3727 10.1547 7.61768C9.75714 7.86225 9.28373 7.94912 8.77386 7.90576H8.77191C7.43332 7.78814 6.72997 6.54466 6.4975 5.5249C6.37283 4.97785 6.35059 4.38943 6.4516 3.84619C6.55137 3.3097 6.78504 2.75278 7.2348 2.35791L7.23773 2.35596L7.37836 2.2417C7.71328 1.99172 8.09162 1.8502 8.49554 1.8501ZM15.5043 1.8501C15.9082 1.85021 16.2866 1.99171 16.6215 2.2417L16.7621 2.35596L16.7651 2.35791L16.9233 2.51318C17.271 2.89159 17.461 3.37663 17.5483 3.84619C17.6493 4.38942 17.627 4.97786 17.5024 5.5249C17.2699 6.54464 16.5665 7.7881 15.228 7.90576H15.226C14.7161 7.94913 14.2427 7.86224 13.8452 7.61768C13.447 7.3727 13.1909 7.01053 13.0424 6.62451C12.7574 5.88335 12.8385 4.99029 13.0678 4.24561C13.2979 3.49849 13.7308 2.7273 14.3412 2.26611C14.6562 2.02824 15.0517 1.85009 15.5043 1.8501ZM8.49554 3.3501C8.45813 3.35017 8.36879 3.35987 8.22406 3.48486L8.22504 3.48584C8.10791 3.58867 7.98725 3.79237 7.92621 4.12061C7.8665 4.44191 7.87625 4.82278 7.96039 5.19189C8.14572 6.00469 8.56405 6.38184 8.90375 6.41162H8.90277C9.16389 6.4336 9.30007 6.38151 9.36859 6.33936C9.43642 6.29751 9.50379 6.22481 9.55707 6.08643C9.67577 5.7778 9.6744 5.25831 9.49847 4.68701C9.32327 4.11824 9.02723 3.66956 8.75433 3.46338C8.62778 3.36782 8.54197 3.35012 8.49554 3.3501ZM15.5043 3.3501C15.4579 3.3501 15.3721 3.36779 15.2455 3.46338C14.9726 3.66954 14.6766 4.11821 14.5014 4.68701C14.3255 5.25833 14.3241 5.7778 14.4428 6.08643C14.4961 6.22483 14.5634 6.29751 14.6313 6.33936C14.6997 6.38145 14.8357 6.4334 15.0961 6.41162L15.1606 6.40186C15.4872 6.33311 15.8657 5.95419 16.0395 5.19189C16.1236 4.82279 16.1334 4.44191 16.0737 4.12061C16.0126 3.7924 15.892 3.58869 15.7748 3.48584V3.48486C15.6305 3.36036 15.5417 3.35019 15.5043 3.3501Z" fill="currentColor"></path>
  </symbol>
  <symbol fill="none" xmlns="http://www.w3.org/2000/svg" viewBox="0 0 24 24" id="savings">
    <path d="M11.9996 1.3999C17.1 1.3999 21.2699 5.37754 21.5797 10.3999H22.9996V11.5991H21.5787C21.4567 13.5748 20.738 15.3888 19.5992 16.8628V22.5991H13.9V20.4097C13.2853 20.5331 12.6498 20.5991 11.9996 20.5991C11.3495 20.5991 10.7139 20.5332 10.0992 20.4097V22.5991H4.39999V16.8608C3.7633 16.0364 3.25607 15.1061 2.91269 14.0991H0.399994V7.8999H2.91269C3.10336 7.34082 3.34308 6.80449 3.62851 6.29736C3.16937 5.71213 2.59264 5.0301 1.87753 4.28564L1.50253 3.90186L1.05624 3.45361L1.52792 3.03174C3.52298 1.24489 6.08645 1.38722 7.81894 2.35498C9.08317 1.74252 10.5023 1.39996 11.9996 1.3999ZM11.9996 2.59912C10.5811 2.59919 9.24624 2.9512 8.07578 3.5708L7.79453 3.03955L7.4664 3.54248C6.24055 2.74155 4.37849 2.50436 2.8248 3.53955C3.41934 4.16323 3.92339 4.74442 4.34531 5.26611L4.83163 5.88818L5.08066 6.21729L4.86288 6.56689C4.46057 7.21318 4.14403 7.91821 3.92831 8.66553L3.35117 8.49854V8.49951L3.92831 8.66553L3.80234 9.09912H1.59921V12.8999H3.80234L3.92831 13.3335C4.20318 14.2858 4.64247 15.1694 5.21347 15.9507L5.4664 16.2798L5.59921 16.4448V21.3999H8.89999V18.8501L9.66562 19.0708C10.4057 19.2844 11.1891 19.3999 11.9996 19.3999C12.8101 19.3999 13.5935 19.2843 14.3336 19.0708L15.0992 18.8501V21.3999H18.4V16.4448L18.5328 16.2798L18.7467 16.0044C19.7854 14.6065 20.4 12.8754 20.4 10.9995C20.3998 6.3605 16.6387 2.59912 11.9996 2.59912ZM6.6041 7.90479C6.81941 7.92413 7.02368 8.00188 7.19687 8.14307L7.28085 8.21826L7.35605 8.30225C7.52089 8.50425 7.59913 8.74838 7.59921 9.00342C7.59921 9.29469 7.49686 9.57345 7.27499 9.78955C7.05736 10.0013 6.78213 10.0991 6.4957 10.0991C6.20802 10.099 5.93732 9.9969 5.72421 9.78955C5.53031 9.6005 5.42754 9.36313 5.40488 9.11182L5.39999 9.00342L5.40488 8.89502C5.42751 8.64393 5.5289 8.40771 5.71835 8.21826L5.80136 8.14404C5.99935 7.98167 6.2396 7.89999 6.4957 7.8999L6.6041 7.90479ZM6.47812 8.90479L6.43808 8.93018C6.42849 8.9395 6.41543 8.95579 6.40683 8.97705C6.40164 8.98996 6.40045 8.99974 6.39999 9.00342L6.40585 9.02686C6.41336 9.04567 6.42498 9.05958 6.43222 9.06689C6.43938 9.07405 6.45335 9.08562 6.47226 9.09326C6.48333 9.09767 6.49216 9.09866 6.4957 9.09912C6.4957 9.09912 6.50924 9.09926 6.5289 9.09131C6.54909 9.0831 6.56189 9.07199 6.56699 9.06689C6.5742 9.05968 6.58571 9.04601 6.59335 9.02686L6.59921 9.00342L6.59238 8.97705C6.58475 8.95834 6.57301 8.94371 6.56406 8.93408L6.56113 8.93018L6.52402 8.90674L6.4957 8.8999C6.49235 8.9005 6.48601 8.90176 6.47812 8.90479ZM11.9996 4.40381C13.0593 4.40381 14.0629 4.65406 14.9518 5.09912L14.6832 5.63525L14.4137 6.17139C13.688 5.80813 12.8683 5.60303 11.9996 5.60303C11.1301 5.60309 10.3097 5.80843 9.58359 6.17236L9.04648 5.1001C9.9357 4.65445 10.9393 4.40387 11.9996 4.40381ZM8.07578 3.5708L7.76328 3.73584L7.4664 3.54248L7.79453 3.04053L8.07578 3.5708Z" fill="currentColor"></path>
  </symbol>
  <symbol fill="none" xmlns="http://www.w3.org/2000/svg" viewBox="0 0 24 24" id="scheduled-payments">
    <path d="M8.09921 3.90039H15.9V2H17.0992V3.90039H22.0992V22.0488L21.5016 22.0498L2.50156 22.0996L1.89999 22.1016V3.90039H6.89999V2H8.09921V3.90039ZM3.09921 20.8984L20.9 20.8506V5.09961H17.0992V7H15.9V5.09961H8.09921V7H6.89999V5.09961H3.09921V20.8984ZM11.9283 8.54395C12.5725 8.54412 13.151 8.70484 13.6275 9.03613C14.1035 9.3673 14.4287 9.83427 14.6256 10.3613L13.9234 10.624L13.2203 10.8867C13.1119 10.5964 12.9568 10.3969 12.7711 10.2676C12.586 10.1389 12.3189 10.0441 11.9283 10.0439C11.5066 10.0439 11.0456 10.4798 11.0455 11.2588C11.0455 11.5142 11.0984 11.736 11.1842 11.9912H12.8502V13.4912H11.6432C11.6659 13.6451 11.6803 13.8079 11.6803 13.9795C11.6803 14.3945 11.585 14.814 11.44 15.2051C11.607 15.2266 11.767 15.2728 11.9225 15.3447C12.0639 15.4103 12.1812 15.4875 12.2623 15.543C12.3558 15.607 12.3969 15.6378 12.4508 15.6699C12.5189 15.7105 12.5816 15.7382 12.7105 15.7383L12.8971 15.7266C13.048 15.7045 13.106 15.6564 13.1412 15.624C13.1815 15.5868 13.2301 15.5298 13.2945 15.4316C13.3666 15.3218 13.4224 15.2198 13.523 15.0537L14.8062 15.8311C14.6747 16.0482 14.4658 16.4442 14.1568 16.7285C13.8342 17.0251 13.4334 17.193 12.9322 17.2305L12.7105 17.2383C12.2645 17.2382 11.9403 17.1113 11.6842 16.959C11.5764 16.8948 11.4698 16.8184 11.4156 16.7812C11.3494 16.7359 11.3162 16.7171 11.2926 16.7061C11.2822 16.7012 11.2454 16.6755 11.0924 16.7061C10.9527 16.7341 10.7385 16.8056 10.4166 16.9648L10.0572 17.1553L9.20273 15.9307C9.43956 15.7277 9.69319 15.4036 9.88535 15.0264C10.0789 14.6463 10.1803 14.2724 10.1803 13.9795C10.1803 13.8084 10.1556 13.6522 10.1148 13.4912H9.35019V11.9912H9.62656C9.57783 11.7679 9.5455 11.524 9.5455 11.2588C9.5456 10.0366 10.3395 8.54395 11.9283 8.54395Z" fill="currentColor"></path>
  </symbol>
  <symbol fill="none" xmlns="http://www.w3.org/2000/svg" viewBox="0 0 24 25" id="transactions">
    <path d="M11.0302 14.0605L7.31042 17.7803H18.4999V19.2803H7.31042L11.0302 23L9.9696 24.0605L4.43933 18.5303L9.9696 13L11.0302 14.0605ZM19.5604 5.53027L14.0302 11.0605L12.9696 10L16.6893 6.28027H5.49988V4.78027H16.6893L12.9696 1.06055L14.0302 0L19.5604 5.53027Z" fill="currentColor"></path>
  </symbol>
  <symbol fill="none" xmlns="http://www.w3.org/2000/svg" viewBox="0 0 24 24" id="no-fees">
    <path d="M12 0.75C18.2132 0.75 23.25 5.78679 23.25 12C23.25 18.2132 18.2132 23.25 12 23.25C5.78679 23.25 0.75 18.2132 0.75 12C0.75 5.78679 5.78679 0.75 12 0.75ZM5.6582 19.4023C7.36334 20.8645 9.57762 21.75 12 21.75C17.3848 21.75 21.75 17.3848 21.75 12C21.75 9.57861 20.8654 7.36501 19.4043 5.66016L5.6582 19.4023ZM10.6016 15.5146C10.4457 16.1235 10.2122 16.7247 9.92773 17.2832C9.88752 17.3622 9.84323 17.4397 9.80078 17.5176C10.6213 17.3273 11.2466 17.397 11.8066 17.6562C12.0408 17.7648 12.2417 17.8968 12.4053 18.0088C12.5811 18.1292 12.7042 18.2187 12.8486 18.3047C13.0983 18.4532 13.3772 18.5684 13.8281 18.5684L14.1104 18.5586C14.7269 18.5154 15.0632 18.3293 15.3076 18.1045C15.6464 17.7926 15.867 17.3718 16.2656 16.7139L17.5488 17.4912C17.2272 18.0221 16.8636 18.7109 16.3223 19.209C15.7963 19.6925 15.1316 19.9874 14.2295 20.0537L13.8281 20.0684C13.0601 20.0684 12.5197 19.8541 12.082 19.5938C11.8834 19.4755 11.6942 19.3396 11.5576 19.2461C11.4087 19.1441 11.2927 19.0714 11.1768 19.0176C10.8517 18.8671 10.2225 18.7109 8.21875 19.7695L7.79883 19.998L7.10742 19.0078L10.6016 15.5146ZM12 2.25C6.61521 2.25 2.25 6.61521 2.25 12C2.25 14.4224 3.13545 16.6367 4.59766 18.3418L18.3438 4.59961C16.6383 3.13634 14.4234 2.25 12 2.25ZM12.1699 3.33203C13.3933 3.33222 14.4444 3.6367 15.291 4.22559C15.7582 4.55069 16.1454 4.95421 16.4629 5.41406L15.3779 6.49805C15.1265 6.06816 14.8119 5.71967 14.4346 5.45703C13.8794 5.07092 13.1399 4.83222 12.1699 4.83203C10.6246 4.83203 9.4629 6.34559 9.46289 8.24316C9.4629 9.11455 9.70302 9.83052 10.0039 10.6328H11.2422L9.13672 12.7363C9.0845 12.5346 9.02385 12.3345 8.95508 12.1328H7.21484V10.6328H8.40625C8.16706 9.93781 7.9629 9.15753 7.96289 8.24316C7.9629 5.9025 9.45733 3.33203 12.1699 3.33203ZM16.2148 12.1328H13.9844L15.4854 10.6328H16.2148V12.1328Z" fill="currentColor"></path>
  </symbol>
  <symbol fill="none" xmlns="http://www.w3.org/2000/svg" viewBox="0 0 24 24" id="replacement-card">
    <path d="M6 9.59961H3.00391C2.7812 9.59966 2.59966 9.78114 2.59961 10.0049V11H6V13H2.59961V17.9951C2.59961 18.2189 2.78117 18.4003 3.00391 18.4004H14.9951C15.2184 18.4004 15.4004 18.2184 15.4004 17.9951V15.999H16.5996V17.9951C16.5996 18.8812 15.8812 19.5996 14.9951 19.5996H3.00391C2.11739 19.5996 1.40039 18.8806 1.40039 17.9951V10.0049C1.40044 9.11944 2.11743 8.40044 3.00391 8.40039H6V9.59961ZM6.33398 17.0996H3.66699V15.9004H6.33398V17.0996ZM20.9951 3.40039C21.8812 3.40039 22.5996 4.11885 22.5996 5.00488V12.9951C22.5996 13.8812 21.8812 14.5996 20.9951 14.5996H9.00391C8.11739 14.5996 7.40039 13.8806 7.40039 12.9951V5.00488C7.40039 4.1194 8.11739 3.40044 9.00391 3.40039H20.9951ZM8.59961 12.9951C8.59961 13.2189 8.78117 13.4003 9.00391 13.4004H20.9951C21.2184 13.4004 21.4004 13.2184 21.4004 12.9951V8H8.59961V12.9951ZM12.334 12.0996H9.66699V10.9004H12.334V12.0996ZM9.00391 4.59961C8.78117 4.59966 8.59961 4.7811 8.59961 5.00488V6H21.4004V5.00488C21.4004 4.78159 21.2184 4.59961 20.9951 4.59961H9.00391Z" fill="currentColor"></path>
  </symbol>
  <symbol fill="none" xmlns="http://www.w3.org/2000/svg" viewBox="0 0 25 24" id="transfer-money">
    <path d="M11.2692 4.25C13.957 4.25 16.3245 5.61925 17.7136 7.69434L16.4675 8.52832C15.345 6.85145 13.4355 5.75 11.2692 5.75C7.81745 5.75 5.01923 8.54822 5.01923 12C5.01923 15.4518 7.81745 18.25 11.2692 18.25C13.4355 18.25 15.345 17.1485 16.4675 15.4717L17.7136 16.3057C16.3245 18.3808 13.957 19.75 11.2692 19.75C6.98902 19.75 3.51923 16.2802 3.51923 12C3.51923 7.71979 6.98902 4.25 11.2692 4.25ZM23.9001 11.4883L24.4811 12.0352L23.9001 12.5811L20.4636 15.8135L19.4362 14.7217L21.5319 12.75H11.2438V11.25H21.4567L19.4362 9.34863L19.9499 8.80273L20.4636 8.25586L23.9001 11.4883Z" fill="currentColor"></path>
  </symbol>
  <symbol fill="none" xmlns="http://www.w3.org/2000/svg" viewBox="0 0 25 25" id="travelling">
    <path d="M21.0469 0.487061C21.4262 0.378712 21.8175 0.354766 22.2021 0.450928C22.5879 0.547473 22.9205 0.753311 23.1992 1.03198C23.4778 1.31067 23.6838 1.64332 23.7803 2.02905C23.8764 2.41365 23.8525 2.80507 23.7441 3.18433C23.5607 3.82629 23.1252 4.47277 22.5234 5.11987L22.2549 5.39722L17.2578 10.3933L19.0586 18.8679L19.1367 19.2332L18.8926 19.5144L16.8516 21.8728L16.083 22.7605L15.6006 21.6892L12.6084 15.0427L9.26953 18.3816L9.91406 21.5261L10.002 21.9558L9.67188 22.2429L8.07324 23.6326L7.38477 24.2312L6.93066 23.4392L4.69434 19.5369L0.791992 17.3005L0 16.8464L0.598633 16.158L1.98828 14.5593L2.27539 14.2292L2.70508 14.3171L5.84766 14.9607L9.18652 11.6208L2.54199 8.63062L1.4707 8.14819L2.3584 7.37964L4.7168 5.33862L4.99805 5.09448L5.36328 5.17261L13.8379 6.97046L18.834 1.97632L19.1113 1.70776C19.7585 1.10599 20.4049 0.670498 21.0469 0.487061ZM21.8379 1.90601C21.7505 1.88421 21.6302 1.88055 21.459 1.92944C21.137 2.02144 20.6986 2.2823 20.1406 2.79956L19.8945 3.03687L6.62305 16.3074L6.33691 16.5925L5.94141 16.5115L2.83203 15.8748L2.33008 16.4529L5.61621 18.3367L5.79297 18.4382L5.89355 18.614L7.77832 21.9011L8.35645 21.3982L7.71973 18.2878L7.6377 17.8923L7.92383 17.6072L13.085 12.446L13.5303 13.4363L16.4863 20.0027L17.5137 18.8142L15.7061 10.3074L15.6211 9.90894L15.9092 9.62085L21.1943 4.33667L21.4326 4.09058C21.9495 3.53298 22.2107 3.09409 22.3027 2.77222C22.3515 2.60122 22.3469 2.48067 22.3252 2.39331C22.3037 2.30719 22.2531 2.20707 22.1387 2.09253C22.0242 1.97803 21.924 1.9276 21.8379 1.90601ZM4.22852 7.7439L10.3223 10.4861L12.5723 8.23608L5.41602 6.71655L4.22852 7.7439Z" fill="currentColor"></path>
  </symbol>
  <symbol fill="none" xmlns="http://www.w3.org/2000/svg" viewBox="0 0 24 24" id="transaction-list">
    <path d="M21.25 22.25H2.75V1.75H21.25V22.25ZM4.25 20.75H19.75V3.25H4.25V20.75ZM14.4531 13.4541L12.6582 15.248H18V16.748H12.6582L14.4531 18.543L13.3926 19.6035L10.3184 16.5283L9.78809 15.998L13.3926 12.3936L14.4531 13.4541ZM7.5 14.75C8.19021 14.75 8.75 15.3098 8.75 16C8.75 16.6902 8.19021 17.25 7.5 17.25C6.80979 17.25 6.25 16.6902 6.25 16C6.25 15.3098 6.80979 14.75 7.5 14.75ZM7.5 15.75C7.36179 15.75 7.25 15.8618 7.25 16C7.25 16.1382 7.36179 16.25 7.5 16.25C7.63821 16.25 7.75 16.1382 7.75 16C7.75 15.8618 7.63821 15.75 7.5 15.75ZM18.6846 7.46777L19.2158 7.99805L18.6846 8.52832L15.6104 11.6035L14.5498 10.543L16.3428 8.74902H11V7.24902H16.3447L14.5498 5.4541L15.6104 4.39355L18.6846 7.46777ZM7.5 6.75C8.19021 6.75 8.75 7.30979 8.75 8C8.75 8.69021 8.19021 9.25 7.5 9.25C6.80979 9.25 6.25 8.69021 6.25 8C6.25 7.30979 6.80979 6.75 7.5 6.75ZM7.5 7.75C7.36179 7.75 7.25 7.86179 7.25 8C7.25 8.13821 7.36179 8.25 7.5 8.25C7.63821 8.25 7.75 8.13821 7.75 8C7.75 7.86179 7.63821 7.75 7.5 7.75Z" fill="currentColor"></path>
  </symbol>
  <symbol fill="none" xmlns="http://www.w3.org/2000/svg" viewBox="0 0 24 24" id="travel">
    <path d="M13.9933 0.75C15.2394 0.750089 16.2501 1.76075 16.2502 3.00684V3.75H20.9933C22.2394 3.75009 23.2501 4.76075 23.2502 6.00684V17.9932C23.2501 19.2392 22.2394 20.2499 20.9933 20.25H3.00604C1.7593 20.2499 0.750272 19.2386 0.750183 17.9932V6.00684C0.750272 4.76139 1.7593 3.75008 3.00604 3.75H7.75018V3.00684C7.75027 1.76139 8.7593 0.750076 10.006 0.75H13.9933ZM3.00604 5.25C2.58902 5.25008 2.25027 5.58852 2.25018 6.00684V17.9932C2.25027 18.4115 2.58902 18.7499 3.00604 18.75H4.75018V5.25H3.00604ZM19.2502 18.75H20.9933C21.411 18.7499 21.7501 18.4108 21.7502 17.9932V6.00684C21.7501 5.58918 21.411 5.25009 20.9933 5.25H19.2502V18.75ZM6.25018 18.75H17.7502V5.25H6.25018V18.75ZM10.006 2.25C9.58902 2.25008 9.25027 2.58852 9.25018 3.00684V3.75H14.7502V3.00684C14.7501 2.58918 14.411 2.25009 13.9933 2.25H10.006Z" fill="currentColor"></path>
  </symbol>
  <symbol fill="none" xmlns="http://www.w3.org/2000/svg" viewBox="0 0 24 24" id="world">
    <path d="M11.9996 1.8999C17.5779 1.8999 22.099 6.42132 22.0992 11.9995C22.0992 17.5779 17.578 22.0991 11.9996 22.0991C6.42144 22.0989 1.90002 17.5778 1.90002 11.9995C1.90024 6.42145 6.42157 1.90011 11.9996 1.8999ZM11.9996 3.09912C11.0054 3.09916 10.0497 3.26412 9.15686 3.56494L9.29065 3.65869L11.0768 3.96924C11.1213 3.97866 11.1639 3.9972 11.2008 4.02393C11.2376 4.05062 11.2679 4.08519 11.2906 4.12451C11.3134 4.16385 11.3278 4.20726 11.3326 4.25244C11.3375 4.29773 11.333 4.34388 11.319 4.38721L11.0114 5.35107C10.997 5.39781 10.972 5.44082 10.9381 5.47607C10.9042 5.51133 10.8622 5.53801 10.816 5.5542L9.99768 5.83936L9.13147 7.34424C9.10573 7.38898 9.06877 7.42621 9.02502 7.45361L7.48206 8.41748C7.44706 8.44048 7.40682 8.45445 7.36682 8.46045L5.47131 8.74268V9.29639L5.99768 9.84424C6.05611 9.90531 6.08951 9.98628 6.08948 10.0708V10.5806L6.48889 10.1655C6.52228 10.1296 6.56449 10.1031 6.61096 10.0874C6.6576 10.0717 6.70799 10.0672 6.75647 10.0757C6.80539 10.0841 6.85167 10.1043 6.89124 10.1343C6.93083 10.1643 6.9627 10.2036 6.98401 10.2485L7.51428 11.3569H9.48401C9.53785 11.3574 9.59098 11.3725 9.63733 11.3999C9.68348 11.4273 9.72137 11.4664 9.74768 11.5132L10.5836 12.9653H11.6442C11.6642 12.9653 11.6841 12.9672 11.7037 12.9712C11.7856 12.9898 11.8575 13.0393 11.903 13.1099C11.9484 13.1805 11.9639 13.2668 11.9469 13.3491L11.6383 14.9565C11.6267 15.018 11.5973 15.0752 11.5543 15.1206L10.4098 16.313V17.144C10.4099 17.1934 10.399 17.2421 10.3776 17.2866C10.3561 17.3311 10.3246 17.3702 10.2858 17.4009L9.17542 18.269V19.7163C9.17522 19.8931 9.03572 20.0366 8.86584 20.0366C8.83395 20.0366 8.80105 20.031 8.77014 20.02L7.84534 19.6987C7.80202 19.6835 7.76194 19.6595 7.72913 19.6274C7.69634 19.5953 7.67105 19.5561 7.65491 19.5132L7.03772 17.9058C7.02279 17.8678 7.01624 17.8276 7.01624 17.7856V14.8354L5.71936 14.5659C5.67251 14.5559 5.62793 14.5352 5.59045 14.5054C5.55307 14.4756 5.52279 14.4374 5.50256 14.394L4.88635 13.1089C4.86441 13.064 4.85418 13.0152 4.85413 12.9653V11.9995C4.8539 11.9152 4.88599 11.8341 4.94397 11.7729L5.29456 11.4067L3.75647 10.3394C3.69912 10.2989 3.65642 10.2403 3.63538 10.1733L3.43909 9.56396C3.21923 10.3382 3.09928 11.1548 3.09924 11.9995C3.09924 16.915 7.08418 20.8997 11.9996 20.8999C14.7983 20.8999 17.2938 19.6071 18.9254 17.5874L18.5543 17.4009L17.9078 16.728C17.8499 16.668 17.818 16.5855 17.818 16.5005V15.2905L16.6129 12.7866C16.593 12.7427 16.5827 12.6929 16.5826 12.6431V11.5288L15.9088 11.061L14.8073 11.3481C14.7416 11.3654 14.6717 11.3588 14.61 11.3306L12.4498 10.3667C12.4004 10.3442 12.3571 10.3098 12.3248 10.2661C12.2925 10.2224 12.2723 10.1707 12.2653 10.1167L11.9557 7.8667C11.9488 7.81767 11.9533 7.76739 11.9684 7.72021C11.9834 7.67322 12.0088 7.63014 12.0426 7.59424L12.9694 6.63037C12.9975 6.60053 13.0313 6.57639 13.069 6.56006C13.1066 6.54376 13.1471 6.53485 13.1881 6.53467H15.0397C15.0908 6.53544 15.1416 6.54955 15.1862 6.57471C15.2306 6.59985 15.2675 6.63591 15.2946 6.6792L15.8385 7.52686L17.4821 7.81299L19.0006 7.28467L19.5221 7.24365C19.1798 6.70347 18.7817 6.20258 18.3346 5.74951L18.0729 5.99365L17.3698 6.48096C17.3019 6.5288 17.2182 6.54571 17.1383 6.52881L15.5953 6.20654C15.5824 6.20436 15.5695 6.20121 15.5573 6.19678L14.7174 5.90576L13.569 6.20361C13.512 6.21861 13.4531 6.21677 13.3971 6.19678L12.4723 5.87549C12.4297 5.85945 12.3905 5.83505 12.358 5.80322C12.3256 5.77142 12.2997 5.73309 12.2828 5.69092C12.266 5.64878 12.2579 5.60347 12.2594 5.55811C12.2609 5.51279 12.272 5.46814 12.2916 5.42725L12.9098 4.14209C12.9345 4.0891 12.9738 4.04373 13.0231 4.01221C13.0723 3.98072 13.1297 3.96459 13.1881 3.96436H14.3492L14.9127 3.67139L15.0153 3.62354C14.0736 3.28453 13.0581 3.09912 11.9996 3.09912Z" fill="currentColor"></path>
  </symbol>
</svg>
