<svg width="0" height="0" class="hidden">
  <symbol xmlns="http://www.w3.org/2000/svg" viewBox="0 0 24 22" id="chat">
    <path fill="currentColor" fill-rule="evenodd" d="M17.5 8.1c-.496 0-.9.404-.9.9s.404.9.9.9.9-.404.9-.9-.404-.9-.9-.9m0 3c-1.158 0-2.1-.942-2.1-2.1s.942-2.1 2.1-2.1 2.1.942 2.1 2.1-.942 2.1-2.1 2.1m-11-3c-.496 0-.9.404-.9.9s.404.9.9.9.9-.404.9-.9-.404-.9-.9-.9m0 3c-1.158 0-2.1-.942-2.1-2.1s.942-2.1 2.1-2.1 2.1.942 2.1 2.1-.942 2.1-2.1 2.1m5.5-3c-.496 0-.9.404-.9.9s.404.9.9.9.9-.404.9-.9-.404-.9-.9-.9m0 3c-1.158 0-2.1-.942-2.1-2.1s.942-2.1 2.1-2.1 2.1.942 2.1 2.1-.942 2.1-2.1 2.1m-9.9 4.8h5.999v3.875c1.614-.444 2.8-1.783 2.8-3.275v-.6H21.9V2.1H2.1zm4.799 5.271V17.1H.9V.9h22.2v16.2H12.054c-.311 2.036-2.17 3.736-4.489 3.997z"></path>
  </symbol>
  <symbol xmlns="http://www.w3.org/2000/svg" viewBox="0 0 20 20" id="account">
    <g fill="currentColor" fill-rule="nonzero">
      <path d="M10 .9a4.1 4.1 0 1 0 0 8.2 4.1 4.1 0 0 0 0-8.2m0 1.2a2.9 2.9 0 1 1 0 5.8 2.9 2.9 0 0 1 0-5.8M10 10.9c-4.215 0-8.001 3.112-9.082 7.455l-.186.745h18.536l-.186-.745C18.002 14.012 14.215 10.9 10 10.9m.248 1.204c3.216.109 6.132 2.32 7.346 5.508l.103.288H2.302l.007-.02C3.487 14.465 6.598 12.1 10 12.1z"></path>
    </g>
  </symbol>
  <symbol xmlns="http://www.w3.org/2000/svg" viewBox="0 0 1024 1024" id="close">
    <title></title>
    <path fill="currentColor" d="M121.537 49.129 974.87 902.462l-72.408 72.408L49.129 121.537z"></path>
    <path fill="currentColor" d="m902.463 49.129 72.408 72.408L121.538 974.87 49.13 902.462z"></path>
  </symbol>
  <symbol xmlns="http://www.w3.org/2000/svg" viewBox="0 0 28 24" id="antenna">
    <g fill="currentColor" fill-rule="evenodd">
      <path d="m20.823 17.071-.867-.83c3.304-3.447 3.304-9.055 0-12.504l.867-.83c3.742 3.906 3.742 10.26 0 14.164M23.379.24c5.15 5.375 5.15 14.123 0 19.5l-.867-.83c4.713-4.919 4.713-12.922 0-17.84zm-3.358 9.75a6.35 6.35 0 0 1-1.754 4.415l-.868-.83a5.15 5.15 0 0 0 1.422-3.585 5.15 5.15 0 0 0-1.422-3.585l.868-.83a6.35 6.35 0 0 1 1.754 4.415M8.042 16.241l-.867.83c-3.741-3.904-3.741-10.258 0-14.164l.867.83c-3.304 3.449-3.304 9.057 0 12.504M5.486 18.91l-.867.83c-5.148-5.377-5.148-14.125 0-19.5l.867.83c-4.711 4.918-4.711 12.921 0 17.84M10.6 6.405A5.15 5.15 0 0 0 9.177 9.99a5.15 5.15 0 0 0 1.423 3.585l-.868.83A6.35 6.35 0 0 1 7.977 9.99a6.35 6.35 0 0 1 1.755-4.415zM14 11.891a1.902 1.902 0 0 1 0-3.801 1.902 1.902 0 0 1 0 3.801m3.1-1.901A3.103 3.103 0 0 0 14 6.891c-1.709 0-3.1 1.39-3.1 3.099a3.1 3.1 0 0 0 2.5 3.039v9.886h1.2v-9.886a3.1 3.1 0 0 0 2.5-3.039"></path>
    </g>
  </symbol>
  <symbol xmlns="http://www.w3.org/2000/svg" viewBox="0 0 30 41" id="bill">
    <g fill="currentColor" fill-rule="nonzero">
      <path d="M.563.5v39.484h28.81V10.911L18.973.5zm26.684 37.358H2.667V2.605h13.906v10.706h10.674zM18.71 11.174V3.258l7.916 7.916z"></path>
      <path d="M11.53 32.479c-.8 0-1-.484-1.82-.484a3.36 3.36 0 0 0-1.674.537 3.32 3.32 0 0 0 1.369-2.748q0-.323-.053-.642h2.326v-1.79H8.847a4.3 4.3 0 0 1-.221-1.368 1.453 1.453 0 0 1 1.505-1.631c.782-.049 1.5.429 1.758 1.168l1.737-.81a3.45 3.45 0 0 0-3.495-2.327 3.347 3.347 0 0 0-3.59 3.38c-.005.547.11 1.09.337 1.589h-.884v1.79h1.4c.1.341.153.695.158 1.052 0 1.263-.895 2.105-1.821 2.979l1.147 1.263a3.67 3.67 0 0 1 1.958-.621c1.053 0 1.348.62 2.569.62a3.16 3.16 0 0 0 2.842-1.968l-1.453-.915c-.453.779-.79.926-1.21.926"></path>
    </g>
  </symbol>
  <symbol xmlns="http://www.w3.org/2000/svg" viewBox="0 0 22 16" id="email">
    <g fill="currentColor" fill-rule="nonzero">
      <path d="M21.1 15.1V.9H.9v14.2zm-1.2-13v11.8H2.1V2.1z"></path>
      <path d="m19.601 1.552.798.896L11 10.803 1.601 2.448l.798-.896L11 9.197z"></path>
    </g>
  </symbol>
  <symbol xmlns="http://www.w3.org/2000/svg" viewBox="0 0 32 32" id="facebook">
    <path d="M13.973 25.24h3.72v-9.333h2.587l.28-3.12h-2.867v-1.76c0-.733.147-1.027.853-1.027h2.013V6.76h-2.573c-2.773 0-4 1.227-4 3.56v2.48h-1.987V16h1.933z"></path>
  </symbol>
  <symbol xmlns="http://www.w3.org/2000/svg" viewBox="0 0 18 26" id="mobile">
    <g fill="currentColor" fill-rule="nonzero">
      <path d="M15 .9H3C1.837.9.9 1.837.9 3v20c0 1.163.937 2.1 2.1 2.1h12c1.163 0 2.1-.937 2.1-2.1V3c0-1.163-.937-2.1-2.1-2.1M3 2.1h12c.5 0 .9.4.9.9v20c0 .5-.4.9-.9.9H3c-.5 0-.9-.4-.9-.9V3c0-.5.4-.9.9-.9"></path>
      <path d="M9 17.9a2.1 2.1 0 1 0 0 4.2 2.1 2.1 0 0 0 0-4.2m0 1.2a.9.9 0 1 1 0 1.8.9.9 0 0 1 0-1.8M12 3.9v1.2H6V3.9z"></path>
    </g>
  </symbol>
  <symbol xmlns="http://www.w3.org/2000/svg" viewBox="0 0 32 32" id="instagram">
    <path d="M16 8.787h3.547a4.8 4.8 0 0 1 1.673.318l-.033-.011c.399.137.738.356 1.013.639l.001.001c.282.27.505.599.647.968l.006.018a4.6 4.6 0 0 1 .307 1.596v6.938a4.7 4.7 0 0 1-.318 1.632l.011-.032a2.7 2.7 0 0 1-.652.986l-.001.001a2.55 2.55 0 0 1-.996.635l-.018.005a4.8 4.8 0 0 1-1.637.307h-7.11a4.8 4.8 0 0 1-1.66-.318l.033.011a2.56 2.56 0 0 1-1.013-.639l-.001-.001a2.7 2.7 0 0 1-.66-.969l-.006-.018a4.7 4.7 0 0 1-.293-1.597V12.32a4.8 4.8 0 0 1 .304-1.633l-.011.033c.153-.388.379-.718.665-.985l.002-.001c.275-.284.615-.503.996-.635l.018-.005a4.8 4.8 0 0 1 1.623-.307h3.564zm0-1.547h-3.627a6.9 6.9 0 0 0-2.181.415l.048-.015a4.3 4.3 0 0 0-1.56 1c-.44.413-.786.921-1.004 1.493l-.009.027a5.8 5.8 0 0 0-.413 2.075v7.099c.012.752.163 1.465.427 2.12l-.014-.04c.222.601.569 1.11 1.011 1.518l.003.002c.425.457.946.82 1.531 1.056l.029.01c.633.24 1.364.386 2.127.4h7.26a6.5 6.5 0 0 0 2.178-.415l-.045.015a4.5 4.5 0 0 0 1.561-1.001l-.001.001c.44-.413.786-.921 1.004-1.493l.009-.027a6.4 6.4 0 0 0 .413-2.069v-7.105a6.6 6.6 0 0 0-.428-2.125l.015.045a4.1 4.1 0 0 0-1.012-1.518l-.002-.002a4.5 4.5 0 0 0-1.529-.989l-.031-.011a6.7 6.7 0 0 0-2.124-.4h-3.637zm0 4.24a4.413 4.413 0 1 0 4.519 4.413v-.014c0-2.467-2-4.467-4.467-4.467h-.056.003zm0 7.187a2.867 2.867 0 1 1 2.934-2.867 2.894 2.894 0 0 1-2.893 2.867zh.002zm5.747-7.454v-.027a1.053 1.053 0 1 0-1.053 1.053h.027c.567 0 1.027-.46 1.027-1.027z"></path>
  </symbol>
  <symbol xmlns="http://www.w3.org/2000/svg" viewBox="0 0 1024 1024" id="offers">
    <path fill="currentColor" d="M292.571 238.933c-29.624 0-53.638 24.015-53.638 53.638s24.015 53.638 53.638 53.638c29.624 0 53.638-24.015 53.638-53.638s-24.015-53.638-53.638-53.638"></path>
    <path fill="currentColor" d="M524.119 43.886H43.886v480.233l492.495 492.495 480.233-480.233zM499.858 102.4l433.981 433.981-397.458 397.458L102.4 499.858V102.4z"></path>
  </symbol>
  <symbol xmlns="http://www.w3.org/2000/svg" viewBox="0 0 18 26" id="sim">
    <g fill="currentColor" fill-rule="evenodd">
      <path d="M15.9 23a.89.89 0 0 1-.9.9H3a.89.89 0 0 1-.9-.9V3a.89.89 0 0 1 .9-.9h9.752l1.083 1.08L15.9 5.24V23m-.372-19.82-1.082-1.083L13.249.9H2.999c-.832 0-1.548.492-1.887 1.197A2.1 2.1 0 0 0 .9 3v20c0 .337.088.651.229.934a2.1 2.1 0 0 0 1.87 1.166h12c.822 0 1.526-.478 1.872-1.166.14-.283.229-.597.229-.934V4.752z"></path>
      <path d="M9.603 21.502h1.2v-9.01h-1.2z"></path>
      <path d="M6.894 17.596h6.617v-1.2H6.894z"></path>
      <path d="M5.7 21.502h1.2v-9.01H5.7z"></path>
      <path d="M13 21.502H5.013a.51.51 0 0 1-.511-.511V13c0-.281.229-.51.51-.51h7.99c.282 0 .51.229.51.51v7.99a.51.51 0 0 1-.51.51M4.5 11.29a1.2 1.2 0 0 0-1.2 1.2v9.01a1.2 1.2 0 0 0 1.2 1.2h9.01a1.2 1.2 0 0 0 1.2-1.2v-9.01a1.2 1.2 0 0 0-1.2-1.2z"></path>
    </g>
  </symbol>
  <symbol xmlns="http://www.w3.org/2000/svg" viewBox="0 0 1024 1024" id="spotify-green">
    <path fill="currentColor" d="M810.3 454.775c-162.551-96.534-430.677-105.41-585.853-58.314-24.92 7.563-51.272-6.51-58.821-31.422-7.553-24.936 6.499-51.269 31.438-58.845 178.131-54.069 474.247-43.628 661.379 67.456 22.413 13.308 29.766 42.255 16.482 64.63-13.296 22.412-42.267 29.8-64.626 16.494zm-5.323 142.981c-11.405 18.505-35.601 24.31-54.081 12.947-135.52-83.303-342.166-107.434-502.495-58.766-20.791 6.283-42.752-5.441-49.068-26.192-6.264-20.791 5.464-42.712 26.218-49.035 183.153-55.578 410.841-28.658 566.491 66.994 18.481 11.383 24.298 35.59 12.935 54.053zm-61.705 137.315c-9.063 14.862-28.411 19.517-43.218 10.459-118.42-72.374-267.47-88.718-443.004-48.626-16.915 3.879-33.774-6.721-37.631-23.635-3.874-16.908 6.685-33.769 23.638-37.629 192.092-43.914 356.869-25.014 489.786 56.207 14.82 9.051 19.486 28.411 10.43 43.225zM512.002 7.72C233.498 7.72 7.72 233.494 7.72 511.993c0 278.532 225.778 504.287 504.282 504.287 278.51 0 504.278-225.755 504.278-504.287 0-278.499-225.768-504.273-504.278-504.273"></path>
  </symbol>
  <symbol xmlns="http://www.w3.org/2000/svg" viewBox="0 0 14 24" id="question">
    <g fill="currentColor" fill-rule="nonzero">
      <path d="M7.039.9C10.744.9 13.1 3.033 13.1 6.38c0 2.32-1.252 3.919-3.244 4.995-1.58.83-2.204 1.622-2.253 3.236l-.003.215V16H6.4v-1.174c0-2.254.886-3.455 2.892-4.51C10.927 9.434 11.9 8.19 11.9 6.38c0-2.656-1.794-4.28-4.861-4.28-2.31 0-4.506 1.378-4.912 4.658l-.03.277-1.195-.107C1.281 2.728 4.111.9 7.04.9M7 18.9a2.1 2.1 0 1 0 .001 4.201A2.1 2.1 0 0 0 7 18.9m0 1.2a.9.9 0 1 1-.001 1.801A.9.9 0 0 1 7 20.1"></path>
    </g>
  </symbol>
  <symbol xmlns="http://www.w3.org/2000/svg" viewBox="0 0 22 22" id="telephone">
    <g fill="currentColor" fill-rule="nonzero">
      <path d="M11.002.9c2.883 0 7.405 1.416 9.65 3.074l.224.172.224.18V10.1H16V8.9h3.9V4.91l-.21-.147c-2.027-1.37-5.858-2.57-8.4-2.658l-.288-.005c-2.535 0-6.589 1.238-8.692 2.66l-.21.147V8.9H6v1.2H.9V4.323l.224-.18C3.276 2.413 8.017.9 11.002.9"></path>
      <path d="M15.37 6.9H6.63L1.9 16.36v4.74h18.2v-4.74zm-.741 1.2 4.271 8.543V19.9H3.1v-3.259L7.37 8.1z"></path>
      <path d="M11 10.9a3.1 3.1 0 1 0 0 6.2 3.1 3.1 0 0 0 0-6.2m0 1.2a1.9 1.9 0 1 1 0 3.8 1.9 1.9 0 0 1 0-3.8"></path>
    </g>
  </symbol>
  <symbol xmlns="http://www.w3.org/2000/svg" xmlns:xlink="http://www.w3.org/1999/xlink" viewBox="0 0 520 260" id="social">
    <defs>
      <path id="a" d="M264.63 130c0 69.51 56.36 125.87 125.87 125.87S516.37 199.51 516.37 130 460.01 4.13 390.5 4.13 264.63 60.49 264.63 130m103.86 64.92c-17.01 0-32.84-5-46.17-13.54 15.99 1.88 31.94-2.56 44.6-12.48-13.17-.24-24.3-8.95-28.15-20.92 4.73.9 9.39.64 13.61-.52-14.48-2.91-24.49-15.96-24.16-29.92a30 30 0 0 0 13.64 3.76c-13.41-8.96-17.21-26.68-9.32-40.22 14.85 18.23 37.06 30.22 62.09 31.48-4.39-18.84 9.9-37 29.36-37 8.66 0 16.49 3.66 21.99 9.52a60 60 0 0 0 19.13-7.32c-2.26 7.04-7.03 12.94-13.25 16.67 6.1-.73 11.91-2.35 17.3-4.75a60.7 60.7 0 0 1-15.03 15.62c1.92 42.37-29.69 89.62-85.64 89.62"></path>
      <path id="b" d="M3.63 130c0 69.51 56.36 125.87 125.87 125.87S255.37 199.51 255.37 130 199.01 4.13 129.5 4.13 3.63 60.49 3.63 130m143.18-41.96c-5.65 0-6.82 2.32-6.82 8.16v12.82h20.98l-2.2 20.98h-18.78v73.42h-31.47V130H87.54v-20.98h20.98V84.81c0-18.55 9.77-28.23 31.77-28.23h20.68v31.46z"></path>
    </defs>
    <use xlink:href="#a" fill="currentColor"></use>
    <use xlink:href="#a" fill-opacity="0" stroke="#000" stroke-opacity="0"></use>
    <use xlink:href="#b" fill="currentColor"></use>
    <use xlink:href="#b" fill-opacity="0" stroke="#000" stroke-opacity="0"></use>
  </symbol>
  <symbol xmlns="http://www.w3.org/2000/svg" viewBox="0 0 24 25" id="top-up">
    <g fill="currentColor" fill-rule="nonzero">
      <path d="M5.683 10.896a5.5 5.5 0 0 1-.463-2.079 4.03 4.03 0 0 1 .493-2.012A3.4 3.4 0 0 1 7.061 5.45a3.85 3.85 0 0 1 1.933-.481 4.2 4.2 0 0 1 2.408.682 3.93 3.93 0 0 1 1.5 1.952l-1.384.61a2.44 2.44 0 0 0-2.524-1.75 2.03 2.03 0 0 0-1.53.61 2.57 2.57 0 0 0-.61 1.828 5.9 5.9 0 0 0 .384 1.946h3.177v1.445h-2.75c.084.4.13.81.134 1.22a4.4 4.4 0 0 1-.433 1.908 4.4 4.4 0 0 1-1.104 1.5q.416-.216.866-.348c.281-.083.573-.128.866-.134.239-.003.476.036.701.116.201.08.433.189.707.33q.298.15.61.267.22.08.451.08c.34.014.674-.09.946-.293.329-.308.596-.676.786-1.085l1.177.713a5.06 5.06 0 0 1-1.311 1.677c-.476.34-1.05.516-1.634.5a2.8 2.8 0 0 1-.848-.116 8 8 0 0 1-.799-.335 5 5 0 0 0-.664-.287 1.9 1.9 0 0 0-.64-.097 2.8 2.8 0 0 0-1.08.195 5 5 0 0 0-1.06.61L4.267 17.56a8.6 8.6 0 0 0 1.58-1.915 3.86 3.86 0 0 0 .524-1.939 4.6 4.6 0 0 0-.213-1.366H4.53v-1.445zM19.372 16.537l-.872-.872 3.171-3.177L18.5 9.311l.872-.878 4.055 4.055z"></path>
      <path d="M14.549 11.866h7.226v1.238h-7.226z"></path>
      <path d="M14.549 25H2.165A2.177 2.177 0 0 1 0 22.805V2.165A2.17 2.17 0 0 1 2.165 0h12.384a2.177 2.177 0 0 1 2.17 2.165H15.5a.92.92 0 0 0-.951-.945H2.165a.92.92 0 0 0-.945.945v20.64a.92.92 0 0 0 .926.933H14.55a.92.92 0 0 0 .933-.933h1.22A2.177 2.177 0 0 1 14.548 25"></path>
      <path d="M15.482 2.165h1.238v4.646h-1.238zM15.482 18.165h1.238v4.646h-1.238z"></path>
    </g>
  </symbol>
  <symbol xmlns="http://www.w3.org/2000/svg" viewBox="0 0 18 26" id="upgrade">
    <g fill="currentColor" fill-rule="evenodd">
      <path d="M13.97 10.438 9 5.469l-4.97 4.969.849.848L8.4 7.766v8.551h1.2V7.766l3.521 3.52zM9 19.417a.901.901 0 0 0 0 1.801.902.902 0 0 0 0-1.801m0 3c-1.158 0-2.1-.941-2.1-2.1 0-1.158.942-2.099 2.1-2.099s2.1.941 2.1 2.099-.942 2.1-2.1 2.1"></path>
      <path d="M3 2.1a.89.89 0 0 0-.9.9v20c0 .505.395.9.9.9h12a.89.89 0 0 0 .9-.9V3a.89.89 0 0 0-.9-.9zm12 23H3C1.842 25.1.9 24.158.9 23V3C.9 1.842 1.842.9 3 .9h12c1.158 0 2.1.942 2.1 2.1v20c0 1.158-.942 2.1-2.1 2.1"></path>
    </g>
  </symbol>
  <symbol xmlns="http://www.w3.org/2000/svg" viewBox="0 0 32 32" id="youtube">
    <path d="M24.773 12.427a3.9 3.9 0 0 0-.714-1.771l.008.011a2.66 2.66 0 0 0-1.797-.76h-.003C19.76 9.734 16 9.734 16 9.734s-3.76 0-6.267.173a2.67 2.67 0 0 0-1.734.76 3.9 3.9 0 0 0-.704 1.767l-.002.02a27 27 0 0 0-.173 2.882v1.344c.009 1.03.071 2.034.186 3.023l-.012-.13a3.84 3.84 0 0 0 .714 1.771l-.007-.011a3.05 3.05 0 0 0 1.97.773h.003c1.44.133 6.093.173 6.093.173s3.76 0 6.267-.187a2.54 2.54 0 0 0 1.733-.76 3.8 3.8 0 0 0 .705-1.754l.002-.02c.102-.859.165-1.864.173-2.881v-1.345a28 28 0 0 0-.186-3.036l.012.129zM14.107 18.32v-4.987l4.84 2.52z"></path>
  </symbol>
  <symbol xmlns="http://www.w3.org/2000/svg" viewBox="0 0 32 32" id="twitter">
    <path d="M8.107 22.133a10.46 10.46 0 0 0 5.689 1.663c5.832 0 10.56-4.728 10.56-10.56q0-.23-.01-.459l.001.022a7.8 7.8 0 0 0 1.836-1.893l.017-.027a6.7 6.7 0 0 1-2.103.584l-.031.003a3.75 3.75 0 0 0 1.62-2.107l.007-.026c-.679.41-1.47.724-2.311.898l-.049.008a3.707 3.707 0 0 0-6.315 3.413l-.005-.025a10.66 10.66 0 0 1-7.666-3.823l-.014-.017a3.7 3.7 0 0 0-.494 1.853c0 1.284.651 2.417 1.641 3.085l.013.008a3.8 3.8 0 0 1-1.713-.463l.02.01v.033a3.72 3.72 0 0 0 2.963 3.643l.024.004a3.73 3.73 0 0 1-1.705-.005l.025.005a3.715 3.715 0 0 0 3.463 2.573h.003a7.36 7.36 0 0 1-4.652 1.645q-.43 0-.849-.048z"></path>
  </symbol>
  <symbol xmlns="http://www.w3.org/2000/svg" viewBox="0 0 11 23" id="unlocking">
    <path fill="currentColor" fill-rule="evenodd" d="M7.962 7.769a3.51 3.51 0 0 1-4.958-.001A3.48 3.48 0 0 1 1.978 5.29c0-.936.364-1.816 1.027-2.478a3.47 3.47 0 0 1 2.477-1.027c.937 0 1.817.364 2.479 1.028A3.48 3.48 0 0 1 8.987 5.29c0 .937-.364 1.816-1.025 2.479M5.482.585a4.67 4.67 0 0 0-3.326 1.378A4.67 4.67 0 0 0 .777 5.29c0 1.257.49 2.439 1.379 3.326a4.66 4.66 0 0 0 2.727 1.319v6.881H.25v1.2h4.633v3.202H.25v1.199h5.832V9.935a4.657 4.657 0 0 0 4.105-4.645A4.67 4.67 0 0 0 8.81 1.964 4.67 4.67 0 0 0 5.482.585"></path>
  </symbol>
</svg>
